<?xml version="1.0" encoding="utf-8"?>
<!-- Generator: Adobe Illustrator 16.0.0, SVG Export Plug-In . SVG Version: 6.00 Build 0)  -->
<!DOCTYPE svg PUBLIC "-//W3C//DTD SVG 1.1//EN" "http://www.w3.org/Graphics/SVG/1.1/DTD/svg11.dtd">
<svg version="1.1" id="Layer_1" xmlns="http://www.w3.org/2000/svg" xmlns:xlink="http://www.w3.org/1999/xlink" x="0px" y="0px"
	 width="550px" height="500px" viewBox="0 0 550 500" enable-background="new 0 0 550 500" xml:space="preserve">
<g>
	<path fill-rule="evenodd" clip-rule="evenodd" fill="#E5B64D" d="M540.382,399.496c-35.592-62.251-71.669-124.225-107.531-186.321
		c-33.661-58.281-67.311-116.57-100.965-174.854c-12.298-21.298-30.33-33.387-55.295-33.878
		c-25.747-0.509-44.985,10.854-57.86,32.938c-16.906,28.995-33.59,58.118-50.375,87.179
		C115.796,215.563,63.244,306.575,10.665,397.565c-6.605,11.424-10.34,23.629-9.563,36.867
		c2.045,34.843,30.122,61.127,65.075,61.132c69.58,0.011,139.159,0.004,208.738,0.003c69.746,0,139.495,0.02,209.245-0.006
		C533.856,495.543,565.035,442.624,540.382,399.496z M482.037,463.891c-69.235-0.352-138.474-0.117-207.708-0.117
		c-68.897,0-137.793,0.01-206.689-0.008c-16.904-0.004-29.507-9.302-33.468-24.953c-2.324-9.191-0.189-17.715,4.525-25.842
		c19.232-33.124,38.361-66.311,57.514-99.484c49.833-86.311,99.671-172.618,149.475-258.942
		c10.817-18.747,31.809-24.051,48.494-12.16c4.556,3.248,7.545,7.728,10.272,12.456c52.214,90.434,104.425,180.868,156.637,271.299
		c16.777,29.073,33.078,58.428,50.461,87.132C525.317,435.999,509.758,464.03,482.037,463.891z"/>
	<path fill-rule="evenodd" clip-rule="evenodd" fill="#E5B64D" d="M258.785,244.523c0-24.92,0.098-49.837-0.091-74.753
		c-0.03-4.167,1.003-5.631,5.328-5.421c7.271,0.351,14.587,0.356,21.858-0.002c4.338-0.218,5.3,1.26,5.287,5.409
		c-0.14,48.31-0.09,96.617-0.09,144.928c0,9.926,0,9.926-9.759,9.926c-5.937,0-11.881-0.235-17.796,0.09
		c-3.914,0.208-4.835-1.195-4.813-4.922C258.86,294.699,258.785,269.607,258.785,244.523z"/>
	<path fill-rule="evenodd" clip-rule="evenodd" fill="#E5B64D" d="M296.285,378.46c-0.057,11.819-9.681,21.366-21.439,21.266
		c-11.631-0.103-21.43-10.016-21.307-21.562c0.12-11.738,9.799-21.243,21.575-21.185
		C286.925,357.038,296.339,366.593,296.285,378.46z"/>
</g>
</svg>
