<?xml version="1.0" encoding="utf-8"?>
<!-- Generator: Adobe Illustrator 16.0.0, SVG Export Plug-In . SVG Version: 6.00 Build 0)  -->
<!DOCTYPE svg PUBLIC "-//W3C//DTD SVG 1.1//EN" "http://www.w3.org/Graphics/SVG/1.1/DTD/svg11.dtd">
<svg version="1.1" id="Layer_1" xmlns="http://www.w3.org/2000/svg" xmlns:xlink="http://www.w3.org/1999/xlink" x="0px" y="0px"
	 width="550px" height="500px" viewBox="0 0 550 500" enable-background="new 0 0 550 500" xml:space="preserve">
<g>
	<path fill-rule="evenodd" clip-rule="evenodd" fill="#E5B64D" d="M522.669,360.953c-2.734-6.261-7.898-8.862-14.421-8.889
		c-19.436-0.075-38.869-0.105-58.303,0.045c-3.5,0.028-4.802-0.725-4.729-4.54c0.246-13.107,0.216-26.222,0.015-39.33
		c-0.056-3.615,0.928-4.72,4.627-4.685c18.663,0.182,37.326,0.084,55.99,0.082c3.565,0,7.123-0.189,10.343-1.91
		c5.852-3.126,8.828-9.769,7.275-15.998c-1.755-7.051-7-11.372-14.331-11.4c-19.898-0.081-39.795-0.096-59.692,0.034
		c-3.182,0.022-4.249-0.803-4.205-4.109c0.175-13.263,0.241-26.532-0.029-39.791c-0.083-4.11,1.072-5.183,5.151-5.138
		c19.585,0.216,39.175,0.121,58.764,0.082c6.592-0.014,11.937-3.7,13.949-9.398c3.471-9.824-3.601-19.438-14.511-19.485
		c-19.587-0.086-39.178-0.129-58.765,0.063c-3.751,0.038-4.617-1.136-4.565-4.686c0.195-12.953,0.233-25.915-0.013-38.866
		c-0.08-4.117,0.869-5.525,5.288-5.465c19.121,0.26,38.25,0.097,57.376,0.123c3.609,0.004,7.05-0.34,10.034-2.703
		c5.25-4.155,7.2-9.954,5.271-15.991c-2.045-6.403-7.262-10.209-14.347-10.226c-19.743-0.047-39.487-0.103-59.228,0.064
		c-3.473,0.027-4.662-0.918-4.361-4.401c0.387-4.464,0.016-8.946-1.208-13.284c-3.633-12.869-14.785-21.153-28.576-21.308
		c-9.105-0.1-9.105-0.1-9.105-9.284c0-17.587,0.013-35.169-0.004-52.755c-0.011-10.015-5.819-16.586-14.633-16.628
		c-8.784-0.042-14.691,6.561-14.702,16.516c-0.019,19.278-0.092,38.562,0.075,57.838c0.03,3.473-0.923,4.444-4.391,4.392
		c-13.262-0.201-26.531-0.205-39.792,0.001c-3.536,0.055-4.396-1.054-4.367-4.461c0.155-18.971,0.069-37.943,0.078-56.916
		c0.002-4.234-0.543-8.326-3.208-11.813c-3.583-4.686-10.296-6.8-15.76-5.035c-6.255,2.019-10.333,7.485-10.354,14.34
		c-0.067,19.896-0.091,39.794,0.042,59.688c0.021,3.19-0.818,4.232-4.11,4.188c-13.108-0.178-26.225-0.267-39.329,0.035
		c-4.543,0.103-5.653-1.337-5.601-5.72c0.227-19.277,0.044-38.56,0.131-57.841c0.023-5.132-1.456-9.43-5.745-12.415
		c-4.813-3.352-9.985-3.978-15.257-1.185c-5.397,2.863-7.951,7.529-7.953,13.606c-0.007,19.437-0.154,38.872,0.11,58.303
		c0.06,4.416-1.349,5.313-5.427,5.234c-12.643-0.249-25.298-0.283-37.939,0.014c-4.461,0.102-5.719-1.206-5.666-5.655
		c0.233-19.278,0.052-38.559,0.13-57.841c0.021-4.94-1.365-9.171-5.353-12.19c-4.677-3.538-9.929-4.317-15.234-1.739
		c-5.426,2.636-8.343,7.194-8.354,13.333c-0.033,19.896-0.099,39.795,0.068,59.69c0.028,3.477-0.907,4.619-4.389,4.354
		c-7.176-0.549-14.197,0.158-20.484,4.138c-10.919,6.912-14.957,17.188-14.062,29.651c0.284,3.964-0.736,5.24-4.987,5.183
		c-19.276-0.261-38.559-0.083-57.839-0.144c-3.503-0.012-6.74,0.621-9.633,2.627c-5.185,3.594-7.515,9.987-5.816,15.856
		c1.842,6.369,6.8,10.37,13.63,10.408c20.051,0.113,40.104,0.118,60.154,0c3.373-0.019,4.559,0.898,4.507,4.432
		c-0.194,13.26-0.237,26.532,0.02,39.793c0.078,4.002-1.273,4.771-4.969,4.735c-19.279-0.177-38.561-0.103-57.841-0.071
		c-9.523,0.018-16.027,6.087-15.951,14.764c0.077,8.654,6.182,14.138,15.837,14.146c18.817,0.02,37.635,0.004,56.453,0.006
		c6.373,0,6.373,0.004,6.374,6.588c0,12.338-0.177,24.681,0.099,37.016c0.094,4.187-0.99,5.43-5.301,5.377
		c-19.431-0.245-38.868-0.165-58.301-0.083c-11.379,0.05-18.562,10.868-13.824,20.847c3.004,6.328,8.627,8.454,15.245,8.463
		c18.972,0.024,37.946,0.156,56.914-0.104c4.427-0.06,5.338,1.384,5.258,5.471c-0.247,12.488-0.279,24.988,0.015,37.476
		c0.102,4.326-0.828,5.758-5.476,5.688c-19.276-0.291-38.559-0.171-57.839-0.102c-9.796,0.035-16.558,7.459-15.393,16.664
		c0.954,7.545,7.324,12.605,16.257,12.635c19.126,0.068,38.254,0.156,57.376-0.082c4.189-0.053,5.38,1.184,5.031,5.201
		c-0.657,7.559,0.671,14.771,5.162,21.101c7.128,10.049,17.305,13.358,29.084,12.698c3.542-0.201,4.737,0.759,4.699,4.53
		c-0.197,19.431-0.058,38.868-0.118,58.303c-0.011,3.842,0.758,7.357,3.217,10.354c3.973,4.85,10.013,6.635,15.79,4.748
		c5.956-1.945,9.874-7.067,9.903-13.577c0.091-20.05,0.099-40.104-0.021-60.155c-0.019-3.179,0.863-4.259,4.146-4.219
		c13.417,0.166,26.841,0.212,40.255-0.022c3.77-0.066,4.584,1.159,4.554,4.698c-0.162,19.281-0.098,38.559-0.068,57.841
		c0.015,9.513,6.135,16.199,14.657,16.224c6.288,0.02,14.971-5.773,14.375-15.956c-0.55-9.376-0.117-18.811-0.117-28.219
		c0-9.873,0.164-19.748-0.083-29.613c-0.094-3.762,0.861-5.054,4.825-4.976c12.952,0.247,25.915,0.263,38.865-0.006
		c4.206-0.088,5.424,1.033,5.372,5.324c-0.239,19.431-0.165,38.864-0.07,58.298c0.031,6.403,2.902,11.202,8.958,13.85
		c5.752,2.512,10.894,1.204,15.453-2.677c4.108-3.499,4.888-8.386,4.892-13.447c0.016-18.971,0.091-37.943-0.069-56.913
		c-0.03-3.478,0.982-4.465,4.43-4.413c12.799,0.191,25.611,0.33,38.401-0.053c4.842-0.146,5.813,1.359,5.75,5.909
		c-0.258,19.123-0.16,38.249-0.083,57.376c0.031,7.796,4.127,13.042,11.292,14.963c6.042,1.62,12.402-1.045,15.845-6.696
		c1.826-3,2.195-6.343,2.192-9.78c-0.021-18.817,0.139-37.638-0.12-56.451c-0.061-4.403,1.342-5.642,5.462-5.246
		c4.157,0.397,8.324-0.145,12.343-1.295c12.961-3.715,21.103-15.145,21.25-29.674c0.08-7.924,0.08-7.924,8.165-7.924
		c17.892,0,35.786-0.021,53.677,0.009c4.975,0.01,9.543-1.057,12.924-4.968C524.034,371.837,525.149,366.632,522.669,360.953z
		 M410.726,391.005c-45.336-0.16-90.673-0.099-136.01-0.099c-45.182,0-90.365-0.049-135.547,0.08
		c-4.032,0.013-5.49-0.747-5.483-5.223c0.145-90.519,0.137-181.04,0.024-271.561c-0.004-4.184,1.032-5.489,5.382-5.483
		c90.52,0.123,181.039,0.124,271.558-0.002c4.289-0.006,5.333,1.165,5.328,5.376c-0.097,90.517-0.074,181.038,0.071,271.557
		C416.056,389.86,414.993,391.02,410.726,391.005z"/>
	<path fill-rule="evenodd" clip-rule="evenodd" fill="#E5B64D" d="M362.005,189.983c-9.127-8.965-18.161-18.024-27.146-27.134
		c-3.572-3.62-7.715-5.3-12.815-5.266c-15.722,0.107-31.445,0.039-47.169,0.039c-15.569,0-31.138,0.111-46.706-0.058
		c-5.488-0.061-9.838,1.857-13.611,5.663c-8.795,8.863-17.631,17.687-26.484,26.49c-3.808,3.788-5.551,8.202-5.529,13.67
		c0.125,30.981,0.127,61.966,0,92.95c-0.023,5.625,1.734,10.101,5.743,14.018c8.931,8.726,17.793,17.525,26.471,26.5
		c3.824,3.957,8.28,5.659,13.609,5.658c31.137-0.007,62.276-0.001,93.413-0.006c5.156,0,9.527-1.654,13.238-5.459
		c8.824-9.05,17.763-17.99,26.814-26.814c3.913-3.812,5.673-8.271,5.67-13.622c-0.015-31.139-0.021-62.277,0.006-93.415
		C367.512,197.991,365.762,193.674,362.005,189.983z M338.201,289.121c0.01,2.701-0.782,4.628-2.726,6.467
		c-6.042,5.709-11.027,13.698-18.159,16.762c-6.789,2.914-15.759,0.767-23.772,0.808c-6.168,0.034-12.338,0.007-18.507,0.007
		c-12.955,0-25.911-0.085-38.862,0.066c-2.885,0.034-4.896-0.843-6.855-2.9c-4.89-5.139-9.932-10.134-15.042-15.054
		c-1.903-1.831-2.811-3.716-2.801-6.447c0.097-25.756,0.091-51.511,0.01-77.267c-0.009-2.668,0.706-4.645,2.655-6.519
		c5.451-5.229,10.788-10.584,16.034-16.021c1.754-1.817,3.602-2.517,6.109-2.512c25.91,0.07,51.818,0.076,77.729-0.005
		c2.549-0.01,4.33,0.826,6.057,2.612c5.035,5.211,10.146,10.357,15.38,15.368c1.928,1.846,2.759,3.739,2.75,6.439
		C338.108,236.991,338.108,263.056,338.201,289.121z"/>
</g>
</svg>
