<svg width="26" height="26" viewBox="0 0 26 26" fill="none" xmlns="http://www.w3.org/2000/svg">
<path d="M3.80859 26H12.2891V16.7578H9.24219V13.7109H12.2891V9.90234C12.2891 7.80226 13.9976 6.09375 16.0977 6.09375H19.9062V9.14062H16.8594C16.0193 9.14062 15.3359 9.82399 15.3359 10.6641V13.7109H19.7688L19.261 16.7578H15.3359V26H22.1914C24.2915 26 26 24.2915 26 22.1914V3.80859C26 1.70851 24.2915 0 22.1914 0H3.80859C1.70851 0 0 1.70851 0 3.80859V22.1914C0 24.2915 1.70851 26 3.80859 26ZM1.52344 3.80859C1.52344 2.54858 2.54858 1.52344 3.80859 1.52344H22.1914C23.4514 1.52344 24.4766 2.54858 24.4766 3.80859V22.1914C24.4766 23.4514 23.4514 24.4766 22.1914 24.4766H16.8594V18.2812H20.5515L21.5672 12.1875H16.8594V10.6641H21.4297V4.57031H16.0977C13.1575 4.57031 10.7656 6.96219 10.7656 9.90234V12.1875H7.71875V18.2812H10.7656V24.4766H3.80859C2.54858 24.4766 1.52344 23.4514 1.52344 22.1914V3.80859Z" fill="white"/>
</svg>
