<svg width="26" height="26" viewBox="0 0 26 26" fill="none" xmlns="http://www.w3.org/2000/svg">
<path d="M18.962 0H7.03795C3.15716 0 0 3.15716 0 7.03795V18.9622C0 22.8428 3.15716 26 7.03795 26H18.9622C22.8428 26 26 22.8428 26 18.9622V7.03795C26 3.15716 22.8428 0 18.962 0V0ZM24.4757 18.9622C24.4757 22.0023 22.0023 24.4757 18.962 24.4757H7.03795C3.99763 24.4757 1.52423 22.0023 1.52423 18.9622V7.03795C1.52423 3.99763 3.99763 1.52423 7.03795 1.52423H18.9622C22.0023 1.52423 24.4757 3.99763 24.4757 7.03795V18.9622Z" fill="white"/>
<path d="M12.9998 5.89062C9.07972 5.89062 5.89062 9.07972 5.89062 12.9998C5.89062 16.9199 9.07972 20.109 12.9998 20.109C16.9199 20.109 20.109 16.9199 20.109 12.9998C20.109 9.07972 16.9199 5.89062 12.9998 5.89062ZM12.9998 18.5847C9.92039 18.5847 7.41485 16.0794 7.41485 12.9998C7.41485 9.92039 9.92039 7.41485 12.9998 7.41485C16.0794 7.41485 18.5847 9.92039 18.5847 12.9998C18.5847 16.0794 16.0794 18.5847 12.9998 18.5847Z" fill="white"/>
<path d="M20.2789 3.36621C19.1205 3.36621 18.1782 4.30864 18.1782 5.46688C18.1782 6.62533 19.1205 7.56776 20.2789 7.56776C21.4373 7.56776 22.3798 6.62533 22.3798 5.46688C22.3798 4.30844 21.4373 3.36621 20.2789 3.36621ZM20.2789 6.04333C19.9611 6.04333 19.7025 5.78466 19.7025 5.46688C19.7025 5.14891 19.9611 4.89044 20.2789 4.89044C20.5969 4.89044 20.8555 5.14891 20.8555 5.46688C20.8555 5.78466 20.5969 6.04333 20.2789 6.04333Z" fill="white"/>
</svg>
