<?xml version="1.0" encoding="utf-8"?>
<!-- Generator: Adobe Illustrator 16.0.0, SVG Export Plug-In . SVG Version: 6.00 Build 0)  -->
<!DOCTYPE svg PUBLIC "-//W3C//DTD SVG 1.1//EN" "http://www.w3.org/Graphics/SVG/1.1/DTD/svg11.dtd">
<svg version="1.1" id="Layer_1" xmlns="http://www.w3.org/2000/svg" xmlns:xlink="http://www.w3.org/1999/xlink" x="0px" y="0px"
	 width="550px" height="500px" viewBox="0 0 550 500" enable-background="new 0 0 550 500" xml:space="preserve">
<g>
	<path fill-rule="evenodd" clip-rule="evenodd" fill="#E5B64D" d="M504.784,275.809c-3.452-6.793-9.308-11.417-14.508-16.614
		c-2.339-2.34-3.292-4.667-3.285-7.978c0.105-42.47,0.096-84.943,0.056-127.413c-0.019-16.859-7.184-30.121-20.688-40.035
		c-10.356-7.604-22.216-9.454-34.669-8.63c-3.119,0.208-4.843-0.669-6.344-3.66C400.498,22.018,348.317-5.838,293.669,2.448
		c-42.979,6.517-74.511,30.104-94.717,68.577c-1.689,3.221-3.513,4.154-6.956,4.142c-33.639-0.119-67.28-0.084-100.917-0.068
		C62.57,75.111,41.46,96.273,41.453,124.847c-0.016,40.442-0.005,80.884-0.004,121.325c0,40.878-0.055,81.757,0.019,122.63
		c0.048,26.854,21.581,48.329,48.366,48.392c16.529,0.036,33.059,0.008,49.59,0.008c24.068,0,48.139,0.047,72.208-0.062
		c2.96-0.013,4.136,0.692,3.972,3.84c-0.25,4.771-0.387,9.594,0.033,14.339c0.358,4.019-0.89,5.533-4.932,5.932
		c-22.127,2.172-40.733,21.25-42.542,43.687c-0.803,9.949,2.364,14.035,12.413,14.035c50.605,0.003,101.21,0.002,151.813,0.002
		c6.092,0,12.184,0.08,18.269-0.035c6.138-0.11,10.045-4.024,9.956-10.185c-0.049-3.3-0.508-6.646-1.195-9.882
		c-3.935-18.527-19.777-35.525-42.482-37.803c-3.551-0.355-4.197-1.747-4.056-4.842c0.222-4.774,0.334-9.586-0.026-14.341
		c-0.3-3.917,1.019-4.79,4.814-4.775c40.02,0.145,80.044-0.291,120.055,0.225c26.584,0.342,49.907-21.878,49.387-49.221
		c-0.264-13.766,0.042-27.538-0.112-41.308c-0.034-3.235,0.74-5.055,3.865-6.715C507.329,311.35,513.131,292.243,504.784,275.809z
		 M423.015,188.019c11.299-20.699,16.303-42.846,15.31-66.401c-0.346-8.134-1.512-16.119-3.469-24
		c-0.54-2.177-0.498-3.246,2.408-3.317c16.248-0.404,30.265,11.959,30.402,28.174c0.319,37.387,0.105,74.777,0.098,112.168
		c0,0.247-0.173,0.497-0.521,1.438c-14.888-14.894-29.402-29.47-44.004-43.96C421.706,190.602,422.172,189.562,423.015,188.019z
		 M312.204,20.439c58.897,0.047,106.962,48.214,106.895,107.127c-0.067,59.005-48.025,106.868-107.081,106.867
		c-59.123-0.001-107.065-47.861-107.035-106.847C205.015,68.271,252.926,20.393,312.204,20.439z M337.658,475.437
		c2.174,3.846,1.895,4.261-2.455,4.263c-23.637,0.015-47.274,0.008-70.909,0.008c-23.637,0-47.273,0.005-70.91-0.006
		c-4.45-0.002-4.694-0.354-2.546-4.175c5.873-10.447,15.116-15.445,26.837-15.506c31.03-0.164,62.066-0.16,93.093-0.001
		C322.48,460.076,331.758,465.004,337.658,475.437z M293.709,436.515c0.142,3.156-0.687,4.319-4.064,4.223
		c-8.403-0.244-16.819-0.079-25.229-0.079c-8.701-0.001-17.401-0.085-26.098,0.05c-2.611,0.04-3.606-0.718-3.52-3.427
		c0.174-5.359,0.173-10.729,0.003-16.086c-0.092-2.938,0.765-4.078,3.908-4.056c17.111,0.133,34.221,0.127,51.331,0.003
		c2.896-0.019,3.764,0.898,3.662,3.722C293.506,426.076,293.471,431.307,293.709,436.515z M467.859,356.2
		c-0.579,5.89,0.464,11.855-0.705,17.764c-2.819,14.26-14.371,23.958-28.888,23.96c-115.874,0.018-231.753,0.017-347.631,0.002
		c-16.417-0.002-29.301-12.442-29.863-28.832c-0.163-4.781,0.101-9.572-0.075-14.351c-0.106-2.894,1.016-3.984,3.812-3.669
		c1.003,0.11,2.028,0.016,3.043,0.016c65.698,0,131.396,0,197.094,0c65.987,0,131.972,0.042,197.961-0.099
		C466.758,350.984,468.285,351.904,467.859,356.2z M467.674,329.706c0.289,3.216-2.548,2.068-4.122,2.068
		c-66.41,0.054-132.821,0.049-199.229,0.049c-66.121,0-132.24-0.042-198.359,0.095c-4.099,0.006-5.332-0.873-5.323-5.177
		c0.146-67.113,0.095-134.228,0.107-201.341c0.004-18.553,12.54-31.013,31.148-31.018c31.03-0.008,62.06,0.069,93.089-0.088
		c4.077-0.02,4.699,0.827,3.794,4.836c-4.463,19.792-4.417,39.65,0.688,59.332c1.082,4.167-0.026,4.695-3.852,4.675
		c-27.84-0.144-55.68-0.053-83.52-0.102c-4.284-0.006-7.708,1.384-9.728,5.264c-1.829,3.512-1.527,7.005,0.816,10.237
		c2.273,3.134,5.481,3.838,9.184,3.829c30.016-0.066,60.033,0.061,90.045-0.147c4.222-0.028,6.266,1.307,8.302,4.971
		c20.276,36.512,51.147,58.601,92.333,65.242c27.192,4.384,53.422-0.063,77.844-13.188c3.551-1.908,5.31-1.256,7.934,1.392
		c24.292,24.505,48.758,48.832,73.121,73.271c3.763,3.773,7.977,6.832,13.064,8.287
		C469.765,323.542,467.439,327.106,467.674,329.706z M469.172,302.837c-1.734-0.972-3.282-2.378-4.704-3.792
		c-23.27-23.211-46.462-46.501-69.812-69.632c-2.734-2.71-3.01-4.24,0.191-6.634c5.114-3.827,9.465-8.522,13.451-13.507
		c1.538-1.927,2.477-2.572,4.612-0.422c23.573,23.729,47.259,47.344,70.906,70.998c3.046,3.047,5.333,6.492,5.354,11.032
		C489.365,301.101,478.153,307.848,469.172,302.837z"/>
	<path fill-rule="evenodd" clip-rule="evenodd" fill="#E6B64D" d="M141.252,256.303c12.908,0,25.817-0.063,38.723,0.025
		c8.112,0.056,13.139,6.846,10.173,13.614c-1.847,4.206-5.45,5.996-9.785,6.005c-26.25,0.076-52.5,0.11-78.75-0.015
		c-6.105-0.032-10.601-4.701-10.426-10.046c0.178-5.407,4.73-9.521,10.909-9.557C115.147,256.25,128.201,256.304,141.252,256.303z"
		/>
	<path fill-rule="evenodd" clip-rule="evenodd" fill="#E5B64D" d="M138.064,209.926c11.869,0.001,23.737-0.023,35.605,0.011
		c6.655,0.018,10.541,3.469,10.633,9.317c0.097,5.998-3.977,9.925-10.64,9.941c-23.88,0.051-47.762,0.047-71.641,0.002
		c-6.346-0.014-10.918-4.322-10.845-9.957c0.073-5.438,4.504-9.288,10.85-9.303C114.039,209.903,126.052,209.926,138.064,209.926z"
		/>
	<path fill-rule="evenodd" clip-rule="evenodd" fill="#E6B64E" d="M211.858,266.378c-0.082-5.577,4.217-10.053,9.647-10.038
		c5.023,0.01,9.604,4.667,9.625,9.781c0.02,5.074-4.446,9.629-9.615,9.8C216.298,276.092,211.936,271.783,211.858,266.378z"/>
	<path fill-rule="evenodd" clip-rule="evenodd" fill="#E5B64D" d="M311.991,42.036c-47.385-0.025-85.335,37.837-85.425,85.23
		c-0.088,47.599,37.838,85.61,85.458,85.644c47.534,0.034,85.452-37.964,85.476-85.664
		C397.523,80.066,359.384,42.061,311.991,42.036z M311.885,193.602c-36.518-0.08-66.037-29.619-66.003-66.044
		c0.033-36.952,29.65-66.359,66.707-66.233c36.293,0.124,65.665,29.889,65.613,66.498
		C378.153,164.127,348.356,193.683,311.885,193.602z"/>
	<path fill-rule="evenodd" clip-rule="evenodd" fill="#E5B64D" d="M355.652,125.649c0.093,5.791-2.104,9.525-6.486,11.042
		c-3.867,1.338-8.167-0.05-10.865-3.442c-1.529-1.922-1.852-4.116-1.939-6.495c-0.484-12.986-10.601-23.047-23.649-23.632
		c-6.373-0.284-10.345-4.075-10.298-9.833c0.047-5.711,4.22-9.425,10.604-9.435C335.51,83.811,355.294,103.208,355.652,125.649z"/>
</g>
</svg>
