<svg width="30" height="30" viewBox="0 0 30 30" fill="none" xmlns="http://www.w3.org/2000/svg">
<g clip-path="url(#clip0)">
<path d="M3.51485 0.320801C1.47843 0.320801 0 1.72557 0 3.65965C0 5.59307 1.44909 6.99654 3.44445 6.99654C4.47961 6.99654 5.37136 6.66083 6.02387 6.02591C6.64966 5.41642 6.9945 4.57617 6.99384 3.64465C6.94821 1.68776 5.51737 0.320801 3.51485 0.320801ZM5.11517 5.09179C4.71102 5.48486 4.13282 5.69281 3.44445 5.69281C2.1844 5.69281 1.30373 4.85712 1.30373 3.65965C1.30373 2.44262 2.19222 1.62453 3.51485 1.62453C4.80749 1.62453 5.66144 2.42958 5.69077 3.6603C5.69012 4.2222 5.48608 4.73001 5.11517 5.09179Z" fill="white"/>
<path d="M0.625 29.6385H6.48395V8.09766H0.625V29.6385ZM1.92873 9.40138H5.18022V28.3341H1.92873V9.40138Z" fill="white"/>
<path d="M21.9343 8.09766C19.2173 8.09766 17.5538 9.03569 16.5903 9.91766L16.4071 8.09766H9.77832V29.6378H16.2702V18.3169C16.2702 17.8293 16.4677 16.817 16.5916 16.5497C17.3758 14.8607 18.4338 14.8607 20.036 14.8607C21.8815 14.8607 23.4407 16.5914 23.4407 18.6396V29.6391H29.9594V17.4688C29.9594 11.0297 25.7992 8.09766 21.9343 8.09766ZM28.6556 28.3348H24.7445V18.6389C24.7445 15.8835 22.5881 13.5564 20.036 13.5564C18.3986 13.5564 16.5434 13.5564 15.4085 16.0009C15.1744 16.506 14.9659 17.7166 14.9659 18.3169V28.3348H11.082V9.40138H15.2279L15.4939 12.0375H16.5623L16.7533 11.7292C17.1881 11.0291 18.5628 9.40073 21.9343 9.40073C25.1714 9.40073 28.6556 11.9247 28.6556 17.4669V28.3348Z" fill="white"/>
</g>
<defs>
<clipPath id="clip0">
<rect width="29.959" height="29.959" fill="white"/>
</clipPath>
</defs>
</svg>
