<?xml version="1.0" encoding="utf-8"?>
<!-- Generator: Adobe Illustrator 16.0.0, SVG Export Plug-In . SVG Version: 6.00 Build 0)  -->
<!DOCTYPE svg PUBLIC "-//W3C//DTD SVG 1.1//EN" "http://www.w3.org/Graphics/SVG/1.1/DTD/svg11.dtd">
<svg version="1.1" id="Layer_1" xmlns="http://www.w3.org/2000/svg" xmlns:xlink="http://www.w3.org/1999/xlink" x="0px" y="0px"
	 width="550px" height="500px" viewBox="0 0 550 500" enable-background="new 0 0 550 500" xml:space="preserve">
<g>
	<path fill-rule="evenodd" clip-rule="evenodd" fill="#E6B64E" d="M274.854,474.218c6.151,0,10.357,4.193,10.359,10.326
		c0.002,5.791-4.616,10.656-10.208,10.752c-5.753,0.1-10.917-5.047-10.874-10.838C264.174,478.899,269.074,474.218,274.854,474.218z
		"/>
	<path fill-rule="evenodd" clip-rule="evenodd" fill="#E5B64D" d="M547.586,408.935c-0.063-5.732-4.948-9.4-10.887-9.494
		c-4.998-0.08-10.031-0.371-14.989,0.08c-4.935,0.451-6.01-1.301-6-6.063c0.156-75.164,0.11-150.328,0.109-225.492
		c0-21.953-13.234-35.262-35.077-35.266c-23.332-0.005-46.664-0.068-69.995,0.074c-3.364,0.021-5.035-0.872-6.077-4.224
		c-1.327-4.267-3.222-8.404-5.298-12.375c-1.32-2.526-1.064-4.042,0.99-5.995c5.793-5.513,11.449-11.178,16.989-16.945
		c5.198-5.412,5.123-11.038-0.069-16.25c-14.586-14.64-29.199-29.25-43.836-43.839c-5.42-5.401-11.082-5.419-16.584-0.031
		c-5.715,5.597-11.385,11.243-16.946,16.991c-1.622,1.676-2.895,2.068-5.13,0.996c-4.488-2.154-9.113-4.079-13.815-5.716
		c-2.831-0.986-3.873-2.467-3.805-5.449c0.176-7.662,0.097-15.331,0.047-22.997c-0.051-8.008-3.785-12.109-11.868-12.178
		c-20.33-0.172-40.664-0.172-60.994,0.001c-8.026,0.068-12.174,4.619-12.234,12.636c-0.057,7.666-0.131,15.335,0.049,22.997
		c0.066,2.812-0.912,4.145-3.551,5.048c-4.402,1.507-8.782,3.193-12.928,5.287c-2.674,1.35-4.295,1.188-6.382-1.026
		c-5.372-5.696-10.96-11.193-16.578-16.65c-5.444-5.288-11.392-5.299-16.719-0.002c-14.537,14.451-29.036,28.942-43.481,43.485
		c-5.279,5.314-5.309,11.415-0.158,16.78c4.27,4.448,8.702,8.738,13.063,13.099c6.079,6.079,6.058,6.07,2.769,13.853
		c-1.164,2.756-2.461,5.498-3.22,8.373c-0.894,3.389-2.783,4.157-6.123,4.137c-23.664-0.15-47.33-0.104-70.994-0.073
		c-20.241,0.027-33.893,13.689-33.897,33.878c-0.01,37.497-0.003,74.995-0.003,112.493c0,7.666,0,15.332,0,22.998
		c0,30.83-0.078,61.662,0.095,92.492c0.022,4.025-1.155,5.172-5.039,4.932c-5.146-0.316-10.328-0.115-15.494-0.068
		c-7.284,0.07-11.479,4.189-11.544,11.441c-0.072,7.998-0.02,15.998-0.018,23.998c0.012,34.848,25.702,60.451,60.679,60.457
		c53.496,0.006,106.993,0.006,160.489-0.016c1.984-0.002,4.017-0.039,5.942-0.451c4.063-0.871,6.82-3.41,7.943-7.436
		c2.068-7.41-3.041-13.203-11.669-13.207c-53.496-0.02-106.992,0.006-160.488-0.02c-19.223-0.008-32.468-8.223-39.021-23.975
		c-3.313-7.963-2.403-16.342-2.795-24.631c-0.205-4.338,1.354-5.172,5.371-5.16c45.496,0.135,90.994,0.123,136.49,0.01
		c3.303-0.008,4.863,0.791,6.061,4.088c6.178,17.029,21.863,27.953,39.861,27.973c42.664,0.047,85.328,0.047,127.991,0
		c17.854-0.02,33.538-10.719,39.7-27.484c1.375-3.74,3.109-4.588,6.775-4.578c42.497,0.123,84.994,0.078,127.491,0.078
		c14.579,0,14.517-0.002,13.925,14.588c-0.52,12.824-4.983,23.594-15.463,31.559c-8.165,6.205-17.596,7.523-27.388,7.529
		c-52.83,0.029-105.659,0.008-158.489,0.025c-2.965,0.002-6.03-0.414-8.599,1.744c-3.594,3.021-5.56,6.648-4.182,11.42
		c1.556,5.383,5.513,7.93,12.373,7.934c54.829,0.02,109.659,0.117,164.488-0.035c27.151-0.076,50.635-19.115,56.661-45.523
		C549.188,436.272,547.735,422.55,547.586,408.935z M129.894,154.199c6.495,0.133,12.995,0.094,19.493,0.026
		c7.501-0.077,10.704-2.65,12.802-9.966c2.67-9.318,6.463-18.164,11.185-26.631c3.665-6.573,3.134-10.231-2.175-15.634
		c-4.555-4.635-9.021-9.376-13.836-13.726c-2.91-2.628-2.463-4.222,0.139-6.724c8.043-7.738,15.928-15.648,23.686-23.674
		c2.359-2.441,3.886-2.784,6.347-0.119c4.631,5.015,9.565,9.753,14.445,14.533c4.804,4.706,8.487,5.283,14.394,2.028
		c9.22-5.081,18.768-9.268,28.984-11.951c5.699-1.497,8.198-5.421,8.348-12.643c0.136-6.495,0.169-13-0.025-19.492
		c-0.094-3.114,1.046-3.99,4.045-3.955c11.495,0.138,22.994,0.149,34.488-0.007c3.111-0.042,4.028,1.022,3.947,4.031
		c-0.181,6.659-0.09,13.328-0.046,19.992c0.045,6.874,2.657,10.45,9.289,12.337c9.813,2.791,19.135,6.685,27.99,11.748
		c5.436,3.107,9.467,2.592,14.002-1.818c5.017-4.878,10.003-9.794,14.822-14.865c2.108-2.218,3.54-2.798,5.987-0.264
		c8.101,8.389,16.37,16.618,24.732,24.747c2.229,2.168,2.187,3.518-0.032,5.614c-5.083,4.806-9.97,9.822-14.878,14.81
		c-4.697,4.772-5.293,8.598-2.03,14.364c4.94,8.733,8.852,17.863,11.547,27.542c1.993,7.157,5.482,9.656,13.079,9.724
		c6.498,0.057,13,0.147,19.493-0.045c3.079-0.092,4.008,0.972,3.97,4.007c-0.146,11.495-0.15,22.994,0.001,34.489
		c0.04,3.047-0.884,4.082-3.964,3.991c-6.659-0.196-13.328-0.106-19.992-0.046c-6.898,0.063-10.453,2.716-12.422,9.252
		c-2.984,9.91-6.777,19.456-11.947,28.463c-3.008,5.239-2.387,9.182,1.874,13.581c4.984,5.146,10.03,10.238,15.215,15.18
		c2.133,2.033,2.444,3.379,0.142,5.613c-8.371,8.121-16.607,16.383-24.748,24.734c-2.113,2.17-3.472,2.326-5.62,0.045
		c-4.795-5.094-9.798-9.994-14.815-14.871c-4.987-4.848-8.746-5.322-14.823-1.854c-8.72,4.975-17.92,8.742-27.558,11.51
		c-6.773,1.947-9.267,5.271-9.314,12.268c-0.042,6.332-0.285,12.68,0.087,18.988c0.257,4.344-1.358,5.402-5.388,5.158
		c-5.312-0.324-10.658-0.08-15.99-0.08c-5.498,0-11.011-0.244-16.49,0.082c-3.908,0.23-4.826-1.271-4.666-4.881
		c0.265-5.986,0.138-11.994,0.055-17.992c-0.118-8.459-2.621-11.855-10.616-14.021c-9.219-2.5-17.828-6.359-26.183-10.918
		c-6.842-3.734-9.962-3.184-15.533,2.346c-4.73,4.695-9.518,9.34-14.104,14.172c-2.025,2.135-3.38,2.447-5.619,0.143
		c-8.358-8.605-16.876-17.055-25.438-25.458c-1.703-1.671-1.774-2.697-0.027-4.372c4.932-4.725,9.706-9.613,14.527-14.454
		c5.969-5.993,6.431-9.009,2.442-16.321c-4.637-8.501-8.47-17.326-11.067-26.674c-1.905-6.855-5.387-9.542-12.607-9.633
		c-6.664-0.084-13.331-0.113-19.993,0.024c-2.736,0.057-3.842-0.769-3.812-3.665c0.122-11.662,0.146-23.328-0.012-34.989
		C125.633,154.717,127.09,154.143,129.894,154.199z M494.698,392.726c0,6.693-0.006,6.695-6.806,6.695
		c-38.497,0.002-76.993-0.006-115.49,0.006c-8.102,0.004-11.847,3.582-12.387,11.723c-0.755,11.398-9.282,20.088-20.84,20.139
		c-42.995,0.186-85.993,0.172-128.989,0.006c-10.893-0.041-19.518-8.703-20.408-19.514c-0.756-9.174-4.176-12.355-13.331-12.357
		c-38.663-0.004-77.327-0.082-115.99,0.107c-4.479,0.021-5.514-1.209-5.493-5.568c0.177-37.83,0.102-75.66,0.102-113.492
		c0-37.33-0.003-74.66,0.002-111.99c0.001-10.902,3.376-14.231,14.41-14.237c10-0.006,20.003,0.155,29.996-0.082
		c3.733-0.089,4.847,1.035,4.799,4.783c-0.195,15.329-0.104,30.663-0.073,45.995c0.018,8.993,4.104,13.166,13.1,13.281
		c7.498,0.096,15.001,0.144,22.496-0.042c2.812-0.069,4.199,0.905,5.073,3.536c1.256,3.781,2.418,7.731,4.489,11.071
		c2.703,4.359,1.42,6.937-2.037,9.998c-5.106,4.522-9.762,9.556-14.558,14.423c-5.481,5.563-5.673,11.701-0.288,17.131
		c14.315,14.438,28.688,28.818,43.135,43.125c5.915,5.857,11.569,5.813,17.484,0.053c5.611-5.465,11.171-10.986,16.589-16.641
		c1.781-1.859,3.178-2.178,5.544-0.994c4.155,2.078,8.446,3.994,12.864,5.4c3.094,0.984,4.177,2.436,4.083,5.652
		c-0.219,7.492-0.117,14.996-0.058,22.496c0.066,8.359,3.943,12.277,12.211,12.291c20.331,0.037,40.663,0.037,60.994,0
		c8.311-0.014,11.854-3.574,11.895-11.828c0.038-7.5,0.18-15.006-0.067-22.496c-0.114-3.459,1.114-5.119,4.382-6.061
		c3.179-0.916,6.474-2.004,9.197-3.805c4.938-3.266,8.336-2.391,12.076,2.07c4.267,5.088,9.266,9.572,14.052,14.211
		c5.521,5.352,11.205,5.33,16.658-0.096c14.647-14.576,29.263-29.188,43.835-43.838c5.18-5.209,5.157-10.881-0.063-16.261
		c-5.452-5.622-10.984-11.172-16.633-16.596c-2.063-1.98-2.782-3.552-1.26-6.383c2.195-4.083,3.983-8.438,5.456-12.84
		c0.992-2.966,2.628-3.678,5.499-3.613c7.328,0.165,14.664,0.114,21.996,0.039c8.871-0.09,12.839-4.023,12.865-12.786
		c0.047-15.499,0.127-30.999-0.066-46.495c-0.047-3.757,1.072-4.866,4.812-4.785c10.828,0.233,21.663,0.037,32.496,0.101
		c7.606,0.045,11.28,3.422,12.12,10.992c0.165,1.484,0.124,2.994,0.124,4.492C494.7,244.07,494.7,318.397,494.698,392.726z"/>
	<path fill-rule="evenodd" clip-rule="evenodd" fill="#E5B64D" d="M274.863,100.699c-40.685,0.019-74.841,33.688-74.677,74.339
		c0.169,42.026,32.868,75.094,74.87,74.979c43.99-0.119,74.858-36.33,74.167-74.414C349.28,134.267,315.939,100.682,274.863,100.699
		z M305.272,132.454c-20.282,0-40.298,0-60.292,0C256.124,119.974,289.293,117.832,305.272,132.454z M287.864,227.24
		c-30.327,7.318-60.359-12.131-65.561-42.825c-1.479-8.729-0.926-17.557,2.03-26.141c1.045-3.034,2.472-4.134,5.686-4.102
		c14.99,0.153,29.981,0.068,44.973,0.068c14.658,0,29.318,0.136,43.973-0.093c3.838-0.061,5.584,1.182,6.714,4.82
		C334.86,188.514,317.431,220.106,287.864,227.24z"/>
</g>
</svg>
