<svg width="27" height="27" viewBox="0 0 27 27" fill="none" xmlns="http://www.w3.org/2000/svg">
<g clip-path="url(#clip0)">
<path d="M23.035 3.96497C20.4782 1.40817 17.0919 0 13.5 0C6.0661 0 0 6.06693 0 13.5C0 15.6996 0.540115 17.871 1.56493 19.8013L0.0232773 26.0186C-0.0434647 26.2877 0.0356369 26.5722 0.231743 26.7683C0.426613 26.9633 0.710678 27.0439 0.981354 26.9767L7.19865 25.4349C9.12902 26.4597 11.3004 27 13.5 27C17.0919 27 20.4782 25.5918 23.035 23.035C25.5918 20.478 27 17.0919 27 13.5C27 9.90809 25.5918 6.52176 23.035 3.96497ZM13.5 25.418C11.4648 25.418 9.45758 24.8941 7.69489 23.9035C7.51939 23.8048 7.31277 23.7768 7.11687 23.8252L1.87475 25.1253L3.17457 19.8829C3.22318 19.6874 3.19517 19.4806 3.0965 19.3049C2.10567 17.5424 1.58203 15.5352 1.58203 13.5C1.58203 6.92839 6.92839 1.58203 13.5 1.58203C20.0716 1.58203 25.418 6.92839 25.418 13.5C25.418 20.0716 20.0716 25.418 13.5 25.418Z" fill="white"/>
<path d="M20.6386 15.9019C20.1143 15.3774 19.5371 14.848 18.8703 14.5265C17.8739 14.0463 16.9233 14.1839 16.1932 14.9139C15.861 15.2462 15.4039 15.9013 15.1408 16.2234C14.4623 16.1099 13.1066 14.9669 12.5684 14.4305C12.0322 13.8922 10.8899 12.5364 10.7764 11.8593C11.0967 11.5976 11.7541 11.1387 12.0861 10.8068C12.8162 10.0768 12.9538 9.12593 12.4736 8.12974C12.1521 7.46273 11.6226 6.88575 11.0986 6.3617C10.0311 5.27178 8.38463 5.19145 6.96348 6.6128C5.90138 7.6747 4.95525 9.64338 6.47796 12.9918C7.37897 14.9726 8.83102 16.7246 9.54685 17.4477L9.55241 17.4532C10.2754 18.1693 12.0274 19.6213 14.0083 20.5221C16.2454 21.5395 18.6431 21.7809 20.3875 20.0368C21.83 18.594 21.7085 16.9496 20.6386 15.9019ZM19.2687 18.918C18.2385 19.9482 16.6891 20.0034 14.6631 19.082C12.8846 18.2731 11.2741 16.931 10.6683 16.3318C10.069 15.7258 8.72699 14.1155 7.91806 12.337C6.99665 10.311 7.05185 8.76152 8.08203 7.73135C8.68332 7.13005 9.37546 6.86329 9.96831 7.46871L9.97964 7.48024C11.3839 8.8845 11.2842 9.37126 10.9674 9.68808C10.6862 9.96926 9.85502 10.5337 9.5864 10.8023C8.95585 11.4326 9.07327 12.4091 9.93515 13.7041C10.4495 14.4772 11.1289 15.2275 11.4494 15.5488L11.4511 15.5507C11.7726 15.8712 12.5226 16.5506 13.2957 17.0649C14.591 17.9268 15.5672 18.044 16.1976 17.4137C16.4664 17.1448 17.0306 16.3139 17.3118 16.0327C17.526 15.8185 17.7372 15.7367 18.1831 15.9517C18.7002 16.201 19.2537 16.7545 19.5198 17.0204L19.5314 17.0318C20.1415 17.6293 19.8702 18.3165 19.2687 18.918Z" fill="white"/>
</g>
<defs>
<clipPath id="clip0">
<rect width="27" height="27" fill="white"/>
</clipPath>
</defs>
</svg>
