<?xml version="1.0" encoding="utf-8"?>
<!-- Generator: Adobe Illustrator 16.0.0, SVG Export Plug-In . SVG Version: 6.00 Build 0)  -->
<!DOCTYPE svg PUBLIC "-//W3C//DTD SVG 1.1//EN" "http://www.w3.org/Graphics/SVG/1.1/DTD/svg11.dtd">
<svg version="1.1" id="Layer_1" xmlns="http://www.w3.org/2000/svg" xmlns:xlink="http://www.w3.org/1999/xlink" x="0px" y="0px"
	 width="36px" height="27.25px" viewBox="0 4.25 36 27.25" enable-background="new 0 4.25 36 27.25" xml:space="preserve">
<g>
	<defs>
		<rect id="SVGID_1_" width="36" height="36"/>
	</defs>
	<clipPath id="SVGID_2_">
		<use xlink:href="#SVGID_1_"  overflow="visible"/>
	</clipPath>
	<g clip-path="url(#SVGID_2_)">
		<path fill="#FFFFFF" d="M23.541,16.382l-7.953-4.352c-0.458-0.25-0.998-0.241-1.446,0.025c-0.448,0.266-0.716,0.735-0.716,1.257
			v8.628c0,0.519,0.266,0.987,0.711,1.254c0.232,0.14,0.491,0.209,0.749,0.209c0.237,0,0.474-0.059,0.692-0.177l7.954-4.276
			c0.472-0.254,0.767-0.745,0.769-1.281C24.303,17.133,24.012,16.64,23.541,16.382z M15.535,20.855v-6.449l5.944,3.252
			L15.535,20.855z"/>
		<path fill="#FFFFFF" d="M35.735,10.795l-0.002-0.017c-0.03-0.29-0.334-2.867-1.587-4.178c-1.448-1.542-3.09-1.729-3.88-1.819
			c-0.065-0.007-0.125-0.014-0.179-0.021l-0.063-0.006C25.266,4.407,18.078,4.36,18.006,4.36l-0.006,0l-0.006,0
			c-0.072,0-7.259,0.047-12.062,0.394L5.869,4.76C5.817,4.767,5.761,4.773,5.7,4.78C4.919,4.87,3.295,5.058,1.843,6.656
			c-1.193,1.297-1.539,3.819-1.574,4.103l-0.004,0.037C0.254,10.916,0,13.786,0,16.667v2.694c0,2.882,0.254,5.752,0.265,5.873
			l0.002,0.018c0.031,0.285,0.334,2.816,1.581,4.127c1.362,1.49,3.083,1.688,4.01,1.794c0.146,0.017,0.272,0.031,0.358,0.046
			l0.083,0.012c2.748,0.262,11.364,0.391,11.729,0.396l0.011,0.001l0.011-0.001c0.072,0,7.259-0.048,12.019-0.394l0.063-0.006
			c0.061-0.009,0.129-0.016,0.203-0.023c0.775-0.082,2.391-0.254,3.823-1.83c1.193-1.297,1.538-3.818,1.573-4.102l0.005-0.037
			C35.746,25.113,36,22.243,36,19.361v-2.694C36,13.786,35.746,10.916,35.735,10.795z M33.891,19.361
			c0,2.668-0.233,5.414-0.255,5.666c-0.09,0.695-0.454,2.291-1.035,2.923c-0.896,0.985-1.817,1.084-2.489,1.155
			c-0.082,0.008-0.157,0.017-0.225,0.025c-4.604,0.332-11.52,0.384-11.839,0.386c-0.357-0.005-8.847-0.136-11.511-0.383
			c-0.137-0.022-0.284-0.04-0.439-0.057c-0.789-0.091-1.868-0.214-2.698-1.127L3.38,27.93c-0.571-0.596-0.925-2.088-1.015-2.895
			c-0.017-0.189-0.255-2.969-0.255-5.674v-2.694c0-2.664,0.232-5.408,0.255-5.665c0.106-0.818,0.478-2.317,1.035-2.923
			C4.323,7.063,5.298,6.95,5.942,6.876c0.062-0.007,0.119-0.014,0.172-0.021C10.784,6.521,17.75,6.471,18,6.469
			c0.25,0.001,7.213,0.051,11.842,0.386c0.057,0.007,0.119,0.015,0.186,0.022c0.663,0.075,1.665,0.189,2.584,1.17l0.009,0.009
			c0.571,0.595,0.925,2.113,1.015,2.936c0.016,0.18,0.256,2.965,0.256,5.675V19.361z"/>
	</g>
</g>
</svg>
