<svg width="154" height="154" viewBox="0 0 154 154" fill="none" xmlns="http://www.w3.org/2000/svg">
<path d="M141.22 95.3477C143.367 92.9504 144.676 89.7862 144.676 86.3242C144.676 78.8618 138.603 72.7891 131.141 72.7891H104.87C107.472 64.8936 108.582 54.4173 108.582 49.9267V45.418C108.582 35.4681 100.485 27.3711 90.5352 27.3711H86.0234C83.9541 27.3711 82.1494 28.7788 81.6471 30.788L79.1897 40.6205C75.7457 54.3903 64.8123 69.5827 53.497 72.3439C51.5148 67.3269 46.6211 63.7656 40.9062 63.7656H13.8359C11.3455 63.7656 9.32422 65.7869 9.32422 68.2773V149.488C9.32422 151.979 11.3455 154 13.8359 154H40.9062C46.2872 154 50.9433 150.845 53.124 146.285L68.6263 151.452C73.6944 153.143 78.9761 154 84.321 154H122.117C129.58 154 135.652 147.927 135.652 140.465C135.652 138.705 135.315 137.021 134.702 135.478C140.441 133.911 144.676 128.65 144.676 122.418C144.676 118.956 143.367 115.792 141.22 113.395C143.367 110.997 144.676 107.833 144.676 104.371C144.676 100.909 143.367 97.7449 141.22 95.3477ZM45.418 140.465C45.418 142.952 43.3937 144.977 40.9062 144.977H18.3477V72.7891H40.9062C43.3937 72.7891 45.418 74.8133 45.418 77.3008V140.465ZM122.117 99.8594H131.141C133.628 99.8594 135.652 101.884 135.652 104.371C135.652 106.859 133.628 108.883 131.141 108.883H122.117C119.627 108.883 117.605 110.904 117.605 113.395C117.605 115.885 119.627 117.906 122.117 117.906H131.141C133.628 117.906 135.652 119.931 135.652 122.418C135.652 124.905 133.628 126.93 131.141 126.93H122.117C119.627 126.93 117.605 128.951 117.605 131.441C117.605 133.932 119.627 135.953 122.117 135.953C124.605 135.953 126.629 137.977 126.629 140.465C126.629 142.952 124.605 144.977 122.117 144.977H84.321C79.9477 144.977 75.6254 144.276 71.4777 142.892L54.4414 137.213V81.3854C61.5188 80.0409 68.4458 75.5593 74.699 68.2232C80.8049 61.0586 85.7557 51.5599 87.9424 42.8102L89.5456 36.3945H90.5352C95.5101 36.3945 99.5586 40.443 99.5586 45.418V49.9267C99.5586 55.9844 97.6637 67.6036 95.2394 72.7891H86.0234C83.533 72.7891 81.5117 74.8103 81.5117 77.3008C81.5117 79.7912 83.533 81.8125 86.0234 81.8125H131.141C133.628 81.8125 135.652 83.8368 135.652 86.3242C135.652 88.8117 133.628 90.8359 131.141 90.8359H122.117C119.627 90.8359 117.605 92.8572 117.605 95.3477C117.605 97.8381 119.627 99.8594 122.117 99.8594Z" fill="#4973A6"/>
<path d="M31.8828 135.953C34.3746 135.953 36.3945 133.933 36.3945 131.441C36.3945 128.95 34.3746 126.93 31.8828 126.93C29.3911 126.93 27.3711 128.95 27.3711 131.441C27.3711 133.933 29.3911 135.953 31.8828 135.953Z" fill="#D98F2A"/>
<path d="M95.0469 0C92.5552 0 90.5352 2.02005 90.5352 4.51172V13.8359C90.5352 16.3276 92.5552 18.3477 95.0469 18.3477C97.5385 18.3477 99.5586 16.3276 99.5586 13.8359V4.51172C99.5586 2.02005 97.5385 0 95.0469 0Z" fill="#D98F2A"/>
<path d="M75.9052 19.8963L69.5247 13.5158C67.763 11.7538 64.9062 11.7538 63.1442 13.5158C61.3823 15.2778 61.3823 18.1343 63.1442 19.8963L69.5247 26.2768C71.2864 28.0384 74.1435 28.0387 75.9052 26.2768C77.6672 24.5148 77.6672 21.6583 75.9052 19.8963Z" fill="#D98F2A"/>
<path d="M126.95 13.5158C125.188 11.7538 122.331 11.7538 120.569 13.5158L114.189 19.896C112.427 21.658 112.427 24.5145 114.189 26.2765C115.95 28.0384 118.807 28.0387 120.569 26.2768L126.95 19.8963C128.712 18.1343 128.712 15.2778 126.95 13.5158Z" fill="#D98F2A"/>
</svg>
