<?xml version="1.0" encoding="utf-8"?>
<!-- Generator: Adobe Illustrator 16.0.0, SVG Export Plug-In . SVG Version: 6.00 Build 0)  -->
<!DOCTYPE svg PUBLIC "-//W3C//DTD SVG 1.1//EN" "http://www.w3.org/Graphics/SVG/1.1/DTD/svg11.dtd">
<svg version="1.1" id="Layer_1" xmlns="http://www.w3.org/2000/svg" xmlns:xlink="http://www.w3.org/1999/xlink" x="0px" y="0px"
	 width="1700px" height="450px" viewBox="0 0 1700 450" enable-background="new 0 0 1700 450" xml:space="preserve">
<g>
	<g>
		<path fill-rule="evenodd" clip-rule="evenodd" fill="#FFFFFF" d="M392.795,156.357c-0.009-0.25-0.056-0.499-0.072-0.75
			c-0.162-1.329-0.648-1.828-1.892-1.983c-0.251-0.006-0.502-0.002-0.76-0.008c-3.499-0.495-7.057-0.658-10.57-1.168
			c-7.192-1.15-14.165-2.975-20.978-5.465c-7.217-2.582-13.949-6.073-19.981-10.88c-3.897-3.147-7.219-6.799-9.795-11.111
			c-2.57-4.324-4.021-8.986-4.413-14.034c-0.256-3.497-0.081-7.06,0.568-10.625c1.346-7.472,4.607-13.872,9.872-19.348
			c4.304-4.476,9.334-7.805,14.954-10.296c2.809-1.244,5.657-2.304,8.618-3.143c0.744-0.176,1.007-0.834,0.616-1.408
			c-0.614-0.923-1.272-1.84-1.93-2.821c-4.539-6.407-9.065-12.874-13.612-19.272c-9.07-12.868-18.145-25.737-27.236-38.601
			c-2.841-4.059-1.558-3.416-6.772-3.416c-37.472-0.052-74.958-0.037-112.443-0.037H85.297c-1.02,0-2.033-0.015-3.048,0
			C79.51,2.041,79.51,2.041,77.86,4.283c-0.075,0.09-0.15,0.187-0.212,0.283c-3.733,5.309-7.445,10.61-11.175,15.91
			c-3.955,5.628-7.913,11.207-11.866,16.791c-6.45,9.175-12.881,18.315-19.326,27.446c-0.356,0.502-0.698,1.009-1.042,1.581
			c-0.304,0.493-0.124,1.076,0.409,1.186c2.441,0.725,4.859,1.473,7.199,2.417c6.797,2.794,12.773,6.776,17.741,12.252
			c3.383,3.735,5.813,8.042,7.438,12.709c0.952,2.746,1.704,5.636,1.801,8.547c0.107,2.659,0.12,5.381,0.049,8.037
			c-0.038,1.253-0.287,2.501-0.549,3.744c-1.247,6.143-4.163,11.376-8.371,15.95c-4.35,4.799-9.489,8.453-15.144,11.442
			c-7.01,3.66-14.436,6.228-22.106,8.063c-4.328,1.071-8.682,1.899-13.11,2.392c-2.528,0.25-5.055,0.424-7.576,0.672
			c-0.524,0.077-0.939,0.418-1.091,0.911c-0.53,1.739-0.594,3.489-0.664,5.307c-0.403,9.973-0.317,20.016,0.069,30.057
			c0.025,0.75,0,1.569,0.132,2.317c0.661,3.83,0.523,7.811,1.187,11.71c0.479,2.9,0.569,5.813,1.043,8.712
			c0.856,5.143,1.696,10.219,2.704,15.303c1.907,9.61,4.269,19.075,7.174,28.516c5.248,16.787,11.91,33.064,20.247,48.813
			c3.525,6.637,7.271,13.113,11.295,19.422c6.361,9.963,13.313,19.44,20.878,28.563c5.534,6.64,11.334,12.966,17.381,19.247
			c2.666,2.669,5.497,5.17,8.241,7.824c4.406,4.301,9.021,8.284,13.696,12.12c8.865,7.464,18.144,14.418,27.749,20.753
			c12.028,8.127,24.514,15.431,37.388,22.074c8.127,4.159,16.387,8.135,24.771,11.785c2.84,1.174,2.115,1.165,4.998-0.007
			c3.971-1.67,7.894-3.494,11.789-5.448c7.454-3.512,14.809-7.175,22.05-11.29c7.102-3.847,14.137-7.99,20.968-12.316
			c12.013-7.645,23.549-15.942,34.5-25.074c5.851-4.959,11.563-9.95,17.068-15.257c6.983-6.646,13.579-13.771,19.875-21.078
			c6.871-7.978,13.264-16.289,19.198-25.074c4.809-6.983,9.212-14.283,13.356-21.749c4.814-8.64,9.097-17.594,12.969-26.725
			c4.909-11.614,8.979-23.417,12.338-35.537c2.271-8.306,4.128-16.766,5.686-25.236c0.729-3.985,1.328-8.044,1.829-12.037
			c0.483-3.9,1.135-7.799,1.345-11.777c0.037-0.589,0.037-1.25,0.156-1.838c0.464-2.311,0.469-4.561,0.56-6.878
			c0.082-2,0.057-4.068,0.266-6.066c0.263-2.246,0.286-4.563,0.367-6.812C393.758,170.053,393.094,163.171,392.795,156.357
			 M382.083,188.233c-0.733,4.147-0.485,8.381-1.156,12.53c-0.404,2.491-0.493,4.991-0.902,7.555
			c-0.646,3.828-1.08,7.801-1.754,11.627c-1.234,6.887-2.662,13.696-4.415,20.495c-3.386,12.966-7.626,25.742-12.845,38.189
			c-3.091,7.318-6.465,14.614-10.208,21.743c-7.563,14.277-16.29,27.74-26.311,40.509c-7.88,9.966-16.351,19.426-25.502,28.23
			c-5.572,5.465-11.383,10.468-17.346,15.445c-10.672,8.945-21.938,16.923-33.619,24.389c-6.968,4.342-14.105,8.629-21.354,12.468
			c-6.032,3.311-12.119,6.462-18.317,9.447c-2.976,1.345-6.01,2.666-8.962,4.161c-1.847,0.988-3.503,1.002-5.395,0.144
			c-3.404-1.804-6.911-3.295-10.341-4.957c-16.696-8.133-32.81-17.265-48.155-27.729c-8.393-5.661-16.547-11.788-24.34-18.271
			c-4.681-3.974-9.297-7.957-13.689-12.12c-2.841-2.808-5.753-5.462-8.497-8.283c-10.086-10.315-19.482-21.416-27.856-33.215
			c-6.604-9.306-12.625-19.085-18.026-29.205c-9.493-17.764-16.811-36.363-22.24-55.779c-2.22-7.829-4.111-15.943-5.483-24.081
			c-0.62-3.737-1.356-7.474-1.919-11.213c-0.442-3.063-0.608-6.06-1.083-9.051c-0.68-4.399-0.563-8.88-1.178-13.279
			c-0.104-0.75-0.136-1.568-0.145-2.317c-0.038-6.316-0.081-12.701-0.109-19.016c0-0.501,0.028-1.071,0.086-1.57
			c0.052-0.667,0.519-1.169,1.153-1.257c1.632-0.318,3.249-0.573,4.892-0.819c4.649-0.587,9.202-1.751,13.721-2.997
			c5.277-1.489,10.387-3.396,15.353-5.719c8.229-3.822,15.771-8.718,21.977-15.445c4.433-4.885,7.753-10.371,9.805-16.602
			c0.853-2.656,1.501-5.392,1.72-8.211c0.129-1.747,0.485-3.492,0.478-5.244c-0.017-7.874-1.361-15.432-4.776-22.567
			c-2.998-6.232-7.132-11.702-12.435-16.19c-3.093-2.654-6.386-5.056-9.959-6.976c-0.438-0.248-0.92-0.494-1.244-0.883
			c-0.228-0.195-0.398-0.765-0.274-1.013c0.385-0.757,0.864-1.504,1.375-2.248c5.336-7.605,10.672-15.187,16.006-22.745
			c4.545-6.457,9.086-12.868,13.631-19.315c0.731-1.021,1.501-2.02,2.242-3.075c0.481-0.679,1.151-0.931,1.968-0.931
			c1.141,0.005,2.296,0,3.428,0h106.73c35.558,0,71.137-0.002,106.695,0.005c5.37,0,4.034-0.656,7.047,3.645
			c9.778,13.78,19.511,27.563,29.25,41.415c0.724,1.003,1.41,2.08,2.109,3.159c0.33,0.499,0.18,0.917-0.334,1.25
			c-0.458,0.251-0.9,0.506-1.328,0.751c-4.235,2.4-8.132,5.226-11.644,8.551c-5.208,4.975-9.271,10.784-11.911,17.508
			c-1.998,5.145-3.237,10.454-3.258,15.945c-0.007,2.155-0.007,4.312,0.02,6.471c0.086,4.487,1.129,8.866,2.768,13.022
			c2.911,7.311,7.48,13.455,13.472,18.605c8.001,6.96,17.273,11.608,27.17,15.02c6.374,2.236,12.861,3.905,19.55,4.891
			c1.268,0.167,2.519,0.422,3.764,0.585c1.588,0.17,2.037,0.493,2.076,2.077C382.423,173.214,382.344,180.759,382.083,188.233"/>
		<path fill-rule="evenodd" clip-rule="evenodd" fill="#FFFFFF" d="M374.38,169.479c-0.494-0.091-0.984-0.254-1.482-0.337
			c-4.51-0.744-8.94-1.828-13.31-3.149c-8.705-2.5-17.005-5.983-24.718-10.792c-6.849-4.238-12.93-9.383-17.841-15.857
			c-5.915-7.801-9.263-16.602-10.138-26.31c-0.604-6.727-0.043-13.447,1.645-20.01c1.49-5.816,3.905-11.288,7.226-16.273
			c3.75-5.708,8.397-10.534,13.883-14.524c3.983-2.91,3.582-2.24,0.929-6.055c-7.705-11.039-15.446-22.067-23.271-32.969
			c-3.12-4.384-1.577-3.646-7.063-3.646c-34.549-0.054-69.128-0.007-103.674-0.007H97.451c-2.03,0-4.071,0-6.101,0
			c-2.745,0.007-2.619-0.072-4.368,2.26c-0.617,0.823-1.162,1.659-1.753,2.489c-2.422,3.465-4.846,6.88-7.249,10.286
			c-5.349,7.569-10.682,15.184-16.016,22.745c-0.425,0.656-0.811,1.263-1.172,1.941c-0.081,0.212-0.033,0.552,0.108,0.711
			c0.549,0.503,1.119,1.002,1.737,1.421c4.898,3.488,9.215,7.603,12.853,12.378c6.857,9.113,10.522,19.328,10.975,30.701
			c0.095,2.319,0.025,4.568,0.025,6.886c-0.007,3.07-0.554,6.06-1.248,9.043c-2.135,9.132-6.586,16.941-13.036,23.743
			c-5.226,5.478-11.241,9.878-17.87,13.453c-10.373,5.64-21.431,9.217-32.992,11.371c-4.086,0.749-3.848,0.826-3.786,4.642
			c0.08,7.066-0.086,14.201,0.847,21.26c0.015,3.727,0.651,7.379,1.076,11.031c0.594,4.9,1.37,9.795,2.292,14.618
			c1.599,8.63,3.598,17.106,6.023,25.566c3.905,13.604,8.802,26.733,14.78,39.519c7.111,15.267,15.566,29.71,25.46,43.32
			c5.6,7.788,11.565,15.113,18.02,22.233c10.155,10.975,20.985,21.272,32.72,30.727c11.314,9.124,23.164,17.416,35.542,24.904
			c12.796,7.807,26.129,14.758,39.707,21.076c0.691,0.329,1.377,0.662,2.102,0.84c0.327,0.16,0.77,0.16,1.102,0
			c0.83-0.327,1.627-0.672,2.435-1.01c7.416-3.461,14.665-6.98,21.824-10.94c10.311-5.484,20.368-11.459,30.068-17.939
			c10.885-7.304,21.347-15.111,31.188-23.746c7.74-6.806,15.269-13.782,22.222-21.416c4.86-5.458,9.601-10.798,14.116-16.584
			c10.468-13.126,19.433-27.241,27.183-42.177c3.355-6.467,6.349-12.96,9.116-19.746c3.534-8.328,6.624-16.953,9.2-25.748
			c2.975-10.124,5.435-20.4,7.219-30.716c1.062-6.141,1.968-12.354,2.622-18.501c0.508-4.812,1.104-9.554,1.049-14.443
			c-0.01-0.84-0.01-1.749,0.137-2.658c0.504-3.495,0.31-7.062,0.362-10.629c0.013-0.41,0-0.75-0.017-1.16
			C375.904,170.219,375.577,169.811,374.38,169.479 M198.627,113.362c2.913-7.054,6.24-13.867,10.36-20.335
			c2.257-3.495,4.766-6.888,7.513-10.045c3.11-3.569,6.745-6.482,10.861-8.879c7.452-4.238,15.418-7.139,23.852-8.583
			c3.378-0.619,6.772-1.124,10.212-1.051c3.554,0.079,7.117-0.078,10.672,0.161c4.814,0.258,9.561,1.025,14.217,2.33
			c0.922,0.25,1.136,0.979,0.493,1.739c-3.744,4.475-7.477,8.965-11.226,13.438c-0.826,0.93-1.741,1.837-2.585,2.754
			c-0.744,0.833-1.565,1.241-2.703,0.744c-2.595-1.155-5.38-1.354-8.183-1.485c-5.264-0.164-10.358,0.578-15.33,2.317
			c-6.893,2.401-13.353,5.563-19.144,10.04c-3.423,2.649-6.43,5.732-9.167,9.055c-4.95,6.046-9.136,12.528-12.826,19.337
			c-4.033,7.476-7.584,15.194-10.76,23.082c-0.145,0.404-0.197,0.746-0.286,1.152c-0.08,0.083-0.212,0.166-0.263,0.252
			c-1.079,2.404-2.158,4.739-2.806,7.306c-0.403,0.659-0.771,1.248-1.187,1.9c-0.417,0.586-0.805,1.252-1.349,1.748
			c-1.392,1.171-2.867,2.329-4.324,3.486c-0.075,0.079-0.438-0.155-0.553-0.25c-0.144-0.236-0.172-0.491-0.25-0.737
			C187.32,145.904,192.012,129.377,198.627,113.362 M298.222,248.57c-1.116,2.502-2.321,4.997-3.515,7.493
			c-1.178,2.637-2.362,5.131-3.583,7.626c-0.39,0.824-0.82,1.648-1.308,2.323c-0.659,0.991-1.992,1.325-3.039,0.83
			c-3.235-1.489-5.215-3.985-5.926-7.466c-0.448-2.168-0.028-4.315,1.466-6.133c1.057-1.182,2.148-2.495,3.219-3.672
			c0.581-0.665,1.187-1.327,1.711-2c0.857-1.159,1.292-2.482,1.288-3.972c0-2.503-0.457-4.991-1.308-7.468
			c-0.119-0.339-0.587-0.671-0.829-0.513c-0.201,0.021-0.448,0.18-0.595,0.349c-0.245,0.326-0.423,0.659-0.568,0.994
			c-0.191,0.493-0.41,0.988-0.477,1.485c-0.519,3.839-3.01,6.306-6.338,7.973c-2.648,1.327-5.476,2.153-8.37,2.492
			c-3.388,0.489-6.779,0.992-10.233,0.838c-0.498-0.002-1.001-0.002-1.513-0.006c-0.677-0.004-1.27-0.505-1.243-1.165
			c0.053-1.818,0.053-3.637,0.282-5.313c0.166-1.313,0.585-2.487,1.043-3.652c0.854-2.309,2.481-3.48,4.917-3.496
			c1.526-0.146,3.027-0.002,4.477,0.668c0.558,0.184,1.186,0.348,1.815,0.509c0.351,0.152,0.758,0.158,1.119,0.15
			c3.966-0.641,7.297-2.153,9.478-5.784c1.674-2.664,3.108-5.487,3.968-8.561c0.218-0.744,0.323-1.493,0.385-2.24
			c0.074-1.087-0.499-2-1.502-2.408c-0.713-0.252-1.439-0.505-2.186-0.59c-3.016-0.412-6.028-0.826-9.09-0.905
			c-2.407-0.006-4.808-0.258-7.222-0.422c-1.148-0.081-2.284-0.085-3.417-0.16c-2.547-0.081-5.096-0.091-7.62-0.174
			c-1.937-0.081-3.761-0.495-5.477-1.482c-4.278-2.327-5.164-1.503-8.3-0.332c-4.847,1.907-9.621,4.058-14.437,5.975
			c-4.121,1.661-8.226,3.394-12.423,4.887c-3.938,1.41-8.025,2.38-12.125,3.242c-5.579,1.179-11.164,2.327-16.818,3.153
			c-1.004,0.159-2.007,0.341-2.978,0.665c-1.705,0.496-2.907,1.494-3.32,3.32c-0.337,1.491-0.807,2.978-1.123,4.471
			c-0.819,3.827-2.057,7.489-3.807,11.126c-0.82,1.668-1.537,3.484-1.889,5.322c-0.404,2.149-0.082,3.997,0.996,5.817
			c0.699,1.167,1.534,2.329,2.465,3.467c1.626,1.68,3.353,3.347,5.086,5.148c1.826,1.679,3.713,3.343,5.557,5.159
			c1.279,1.171,2.507,2.494,3.782,3.808c2.558,2.492,3.923,5.498,4.394,8.984c0.257,1.978,0.624,3.808,1.357,5.626
			c0.293,0.669,0.498,1.348,0.664,2.161c0.379,1.657,0.406,3.313-0.069,4.828c-1.022,3.475-2.423,6.787-4.04,9.942
			c-0.348,0.671-0.976,0.84-1.524,0.494c-2.057-1.638-3.831-3.321-5.168-5.625c-1.078-1.818-1.693-3.656-1.885-5.66
			c-0.209-2.159-0.216-4.318,0.045-6.474c0.18-1.491-0.118-2.813-1.079-3.97c-1.31-1.505-2.478-3.169-3.879-4.658
			c-2.634-2.808-5.375-5.464-8.136-7.977c-1.947-1.97-4.145-3.464-6.635-4.47c-0.814-0.336-1.59-0.822-2.398-1.16
			c-2.218-0.996-4.252-2.316-6.16-3.812c-0.7-0.505-1.396-1.012-2.167-1.503c-0.273-0.165-0.838-0.168-1.069,0
			c-3.572,2.668-6.162,5.979-5.996,10.799c0.072,2.323,0.556,4.628,1.178,6.793c1.052,3.816,2.556,7.466,4.295,10.961
			c1.187,2.339,2.726,4.638,4.488,6.634c1.846,2.012,3.647,4.167,5.536,6.306c2.675,2.84,5.019,5.991,6.956,9.472
			c1.536,2.816,3.089,5.49,4.63,8.307c0.124,0.176,0.237,0.488,0.357,0.664c0.361,0.822,0.106,1.497-0.611,1.988
			c-2.521,1.646-5.268,1.819-8.074,1.157c-2.733-0.663-5.266-1.83-7.647-3.321c-2.596-1.648-3.904-3.973-4.043-6.965
			c-0.02-0.501-0.06-1.002-0.021-1.498c0.153-1.672-0.453-2.984-2.113-3.648c-0.356-0.162-0.68-0.336-1.013-0.503
			c-1.615-0.838-2.839-2.155-3.667-3.81c-0.516-1-1.022-2-1.478-3.006c-1.479-3.63-3.238-6.959-5.163-10.273
			c-2.625-4.486-5.09-9.125-7.583-13.621c-1.768-3.167-3.489-6.478-5.267-9.783c-0.737-1.331-1.299-2.67-1.667-4.165
			c-0.192-0.822-0.087-1.498,0.332-2.165c0.728-1.165,1.494-2.467,2.281-3.49c1.267-1.976,2.555-3.812,3.49-5.961
			c0.664-1.499,1.221-3,1.331-4.662c0.231-3.297-0.623-6.129-2.424-8.634c-1.587-2.316-3.22-4.634-5.486-6.304
			c-1.142-0.975-1.86-2.146-2.399-3.469c-0.955-2.169-1.635-4.488-2.051-6.823c-0.531-3.067-0.683-6.129-0.552-9.129
			c0.006-0.497-0.039-1.069-0.145-1.495c-0.045-0.243-0.29-0.499-0.484-0.574c-3.043-0.497-6.047-0.584-8.849,1.075
			c-0.1,0.079-0.15,0.171-0.242,0.252c-0.205,0.167-0.135,0.909,0.087,1.072c1.052,0.748,2.293,1,3.54,1.247
			c1.001,0.169,1.985,0.418,2.975,0.665c0.317,0.081,0.525,0.663,0.359,0.915c-0.411,0.661-0.865,1.246-1.252,1.909
			c-0.881,1.574-1.75,3.078-2.584,4.708c-1.132,2.023-1.29,4.333-0.902,6.657c0.614,3.648,1.333,7.157,2.256,10.791
			c1.472,5.647,2.992,11.29,4.88,16.775c1.938,5.648,2.063,11.454,1.314,17.275c-0.372,2.972-0.926,5.799-1.819,8.617
			c-3.3,10.148-10.106,17.101-20.113,20.919c-2.629,0.996-5.333,1.664-8.107,1.991c-4.72,0.497-9.075-0.668-13.043-3.311
			c-2.372-1.501-4.397-3.479-6.076-5.656c-1.517-2.139-2.89-4.155-4.037-6.474c-2.433-4.967-4.199-10.114-5.183-15.442
			c-0.289-0.828-0.6-1.66,0.84-1.646c1.932,2.474,4.255,4.322,6.937,5.821c2.933,1.799,6.068,2.637,9.463,2.48
			c1.292-0.006,2.508-0.337,3.748-0.66c2.118-0.493,3.626-1.675,4.789-3.49c1.057-1.651,1.764-3.331,2.248-5.159
			c0.914-3.477,1.596-6.963,1.851-10.602c0.353-4.995,0.78-9.988,0.557-15.125c-0.123-3.155-0.348-6.314-0.514-9.47
			c-0.15-3.135-0.23-6.131-0.628-9.128c-0.385-2.971-0.423-5.829-0.9-8.715c-0.226-1.408,0.011-2.81,0.437-4.147
			c0.717-2.323,1.66-4.562,2.895-6.634c2.543-4.236,6.069-6.9,11.123-7.805c4.616-0.755,9.09-0.495,13.584,0.501
			c0.374,0.081,0.721,0.245,1.102,0.327c1.511,0.33,2.265,0.339,2.882-1.489c1.233-3.577,3.017-6.977,5.092-10.209
			c0.68-1.008,1.417-2.083,2.292-2.994c5.488-5.652,11.541-10.706,18.173-15.022c2.048-1.329,4.24-2.404,6.626-2.751
			c2.49-0.485,5-0.903,7.559-0.905c1.898-0.002,3.795-0.166,5.687-0.493c3.182-0.501,6.149-1.58,8.984-2.992
			c2.502-1.244,4.97-2.573,7.236-4.23c2.548-0.993,4.399-2.911,6.458-4.573c1.081-0.907,1.821-2.077,1.983-3.565
			c1.592-2.07,2.79-4.315,3.74-6.721c0.033-0.088,0.018-0.248,0.02-0.339c2.014-3.818,4.061-7.634,6.039-11.456
			c4.15-8.045,8.496-15.932,13.329-23.567c2.181-3.408,4.534-6.729,7.062-9.886c2.732-3.398,5.834-6.385,9.507-8.786
			c5.794-3.742,11.896-6.73,18.647-8.396c4.106-1.067,8.244-1.406,12.465-1.233c2.028,0.145,3.998,0.666,5.99,1.07
			c1.353,0.25,2.738,0.578,4.081,0.911c1.061,0.252,2.038,0.089,2.968-0.336c1.108-0.577,2.193-1.242,3.32-1.821
			c0.099-0.079,0.515,0.176,0.517,0.331c0.017,0.593,0.017,1.249-0.086,1.885c-0.339,1.937-0.327,1.939,1.314,3.01
			c2.187,1.404,4.591,2,7.218,2.007c2.822,0.07,5.53-0.583,8.236-1.257c0.179-0.077,0.443,0.1,0.628,0.25
			c0.068,0.011,0.086,0.252,0.036,0.341c-1.217,2.568-2.788,4.884-5.114,6.547c-2.739,1.921-2.723,2.231-2.439,5.397
			c0.5,5.718,0.728,11.376,0.842,17.103c0.083,3.978,0.663,7.809,1.302,11.706c0.528,3.399,1.026,6.801,1.499,10.203
			c0.246,1.75,0.238,3.567-0.416,5.236c-0.172,0.493-0.323,0.996-0.633,1.406c-1.607,2.074-3.693,3.49-6.318,3.9
			c-1.493,0.174-3.051,0.091-4.567,0c-1.579-0.16-2.852-0.984-3.83-2.236c-0.935-1.242-1.614-2.575-2.183-3.987
			c-1.374-3.408-3.025-6.723-4.763-9.962c-0.415-0.822-0.878-1.57-1.372-2.317c-0.558-0.831-1.639-0.826-2.227,0
			c-0.842,1.159-1.336,2.412-1.656,3.818c-0.759,3.489-0.888,7.054-0.758,10.623c0.07,1.822,0.613,3.486,1.182,5.151
			c0.93,2.815,2.345,5.387,3.691,7.962c1.174,2.247,2.204,4.567,2.889,7.052c0.805,2.913,1.381,5.9,1.261,8.973
			c-0.035,0.909-0.058,1.818-0.035,2.659c0.061,2.733,1.16,4.898,3.274,6.631c3.469,2.743,6.955,5.489,10.442,8.298
			c2.708,2.081,5.438,4.157,8.135,6.308c0.705,0.505,1.384,1.085,2.042,1.67c2.249,2.153,2.897,4.725,1.893,7.638
			c-0.303,0.832-0.648,1.66-0.98,2.489c-1.383,3.405-1.472,6.963-0.671,10.462c0.771,3.644,1.495,7.288,2.262,10.792
			C300.259,241.264,299.761,244.928,298.222,248.57"/>
		<path fill-rule="evenodd" clip-rule="evenodd" fill="#FFFFFF" d="M61.984,278.799c-0.664,0.331-0.668,0.996-0.83,1.646
			c-0.688-0.665-0.774-1.495-0.585-2.471c0.016-0.019,0.114-0.186,0.17-0.186c0.227,0.004,0.519,0.006,0.664,0.167
			C61.652,278.138,61.789,278.472,61.984,278.799"/>
		<g>
			<path fill="#FFFFFF" d="M565.398,101.531h-78.371l-7.669,45.826h76.132l-6.098,36.441h-76.132l-12.474,74.536h-38.626
				L454.5,65.091h116.997L565.398,101.531z"/>
			<path fill="#FFFFFF" d="M563.788,258.334l33.724-201.525h36.106l-33.724,201.525H563.788z"/>
			<path fill="#FFFFFF" d="M760.701,120.304h36.106l-23.099,138.03h-36.106l2.726-16.287
				c-13.073,13.438-29.403,20.152-48.996,20.152c-18.661,0-33.485-7.039-44.468-21.119c-10.987-14.078-14.77-31.333-11.351-51.762
				c3.418-20.428,12.976-37.682,28.675-51.762c15.695-14.079,32.875-21.118,51.536-21.118c19.593,0,33.675,6.721,42.251,20.152
				L760.701,120.304z M677.847,217.339c6.061,7.273,14.69,10.905,25.885,10.905c11.196,0,21.084-3.632,29.674-10.905
				c8.585-7.268,13.836-16.607,15.746-28.021c1.909-11.409-0.215-20.748-6.368-28.02c-6.157-7.268-14.828-10.905-26.024-10.905
				c-11.195,0-21.042,3.637-29.535,10.905c-8.494,7.272-13.696,16.611-15.605,28.02C669.71,200.732,671.786,210.071,677.847,217.339
				z"/>
			<path fill="#FFFFFF" d="M853.502,159.504c-0.616,3.683,1.354,6.673,5.916,8.972c4.556,2.303,10.235,4.327,17.036,6.073
				c6.797,1.752,13.517,3.959,20.164,6.625c6.643,2.67,11.913,7.134,15.813,13.389c3.895,6.259,5.062,14.08,3.491,23.466
				c-2.372,14.173-9.563,25.078-21.569,32.712c-12.009,7.635-26.036,11.457-42.082,11.457c-28.737,0-46.498-10.947-53.281-32.852
				l34.259-17.392c2.1,11.965,10.244,17.944,24.427,17.944c12.876,0,19.975-3.956,21.3-11.871c0.615-3.68-1.359-6.669-5.917-8.972
				c-4.562-2.299-10.232-4.37-17.013-6.211c-6.787-1.838-13.49-4.142-20.118-6.902c-6.631-2.761-11.918-7.13-15.858-13.113
				c-3.945-5.979-5.162-13.479-3.652-22.5c2.278-13.617,9.154-24.336,20.637-32.161c11.477-7.82,24.775-11.732,39.889-11.732
				c11.381,0,21.313,2.532,29.799,7.592c8.48,5.064,14.641,12.285,18.485,21.671l-33.561,16.564
				c-2.908-9.386-9.588-14.08-20.036-14.08c-4.666,0-8.707,1.014-12.124,3.037C856.088,153.25,854.086,156.01,853.502,159.504z"/>
			<path fill="#FFFFFF" d="M1032.005,116.438c15.297,0,27.094,5.064,35.385,15.183c8.286,10.124,10.939,24.112,7.952,41.961
				l-14.183,84.751h-36.106L1038.496,178c1.54-9.2,0.198-16.24-4.023-21.119c-4.223-4.875-10.531-7.316-18.928-7.316
				c-9.333,0-17.272,2.856-23.824,8.559c-6.553,5.706-10.784,14.264-12.693,25.673l-12.474,74.536h-36.106l32.338-193.243h36.106
				l-11.826,70.671C997.99,122.883,1012.972,116.438,1032.005,116.438z"/>
		</g>
		<g>
			<path fill="#FFFFFF" d="M1160.791,261.646c-17.668,0-32.107-4.184-43.31-12.561c-11.207-8.371-18.062-19.92-20.566-34.645
				l18.182-9.663c1.491,11.965,6.372,21.304,14.635,28.021c8.261,6.721,19.751,10.076,34.478,10.076
				c14.355,0,26.067-3.176,35.135-9.523c9.068-6.35,14.48-14.77,16.236-25.261c1.693-10.119-0.712-17.758-7.208-22.913
				c-6.501-5.15-17.754-10.49-33.761-16.012c-18.953-6.625-31.311-11.96-37.073-16.012c-13.248-8.833-18.467-21.623-15.664-38.373
				c2.741-16.378,10.606-29.305,23.607-38.786c12.995-9.477,27.867-14.218,44.616-14.218c15.089,0,27.504,3.913,37.237,11.733
				c9.733,7.825,16.249,17.806,19.558,29.953l-17.813,9.11c-5.262-21.347-19.306-32.023-42.124-32.023
				c-11.966,0-22.121,2.946-30.465,8.833c-8.349,5.892-13.398,14.079-15.154,24.569c-1.602,9.572,0.51,16.75,6.335,21.533
				c5.824,4.788,15.957,9.662,30.403,14.632c6.592,2.393,11.323,4.097,14.19,5.106c2.867,1.013,7.007,2.67,12.419,4.969
				c5.413,2.304,9.353,4.326,11.821,6.074c2.468,1.751,5.424,4.141,8.875,7.177c3.447,3.037,5.79,6.073,7.034,9.11
				c1.238,3.037,2.188,6.721,2.844,11.042c0.657,4.327,0.569,8.972-0.263,13.941c-2.741,16.383-10.918,29.497-24.526,39.338
				C1196.856,256.727,1180.297,261.646,1160.791,261.646z"/>
			<path fill="#FFFFFF" d="M1402.53,120.304h18.22l-23.099,138.03h-18.22l4.527-27.055c-16.087,20.248-36.372,30.367-60.847,30.367
				c-19.695,0-35.316-6.992-46.87-20.98c-11.558-13.984-15.639-31.1-12.25-51.348c3.388-20.243,13.196-37.358,29.436-51.347
				c16.234-13.984,34.197-20.981,53.893-20.981c24.475,0,41.371,10.124,50.683,30.367L1402.53,120.304z M1291.457,228.105
				c8.719,10.586,20.714,15.873,35.992,15.873c15.274,0,29.043-5.287,41.306-15.873c12.261-10.581,19.67-23.508,22.227-38.787
				c2.556-15.274-0.526-28.201-9.245-38.786c-8.721-10.582-20.719-15.874-35.993-15.874c-15.278,0-29.044,5.292-41.305,15.874
				c-12.262,10.585-19.67,23.512-22.226,38.786C1279.655,204.597,1282.737,217.525,1291.457,228.105z"/>
			<path fill="#FFFFFF" d="M1536.353,79.446c-13.251-1.104-23.622,1.199-31.107,6.901c-7.489,5.707-12.341,15.184-14.559,28.434
				l-0.924,5.522h39.753l-2.956,17.667h-39.753l-20.143,120.363h-18.22l20.143-120.363h-23.466l2.956-17.667h23.466l0.924-5.522
				c3.019-18.034,10.316-31.699,21.905-40.995c11.584-9.291,26.562-13.294,44.938-12.009L1536.353,79.446z"/>
			<path fill="#FFFFFF" d="M1606.261,116.99c20.429,0,35.735,7.226,45.926,21.671c10.187,14.45,13.636,31.519,10.341,51.21
				c-0.339,2.026-1.002,4.878-1.983,8.558h-121.191c-0.504,13.988,3.576,25.078,12.239,33.264
				c8.657,8.193,20.348,12.285,35.074,12.285c10.49,0,19.914-2.16,28.278-6.486c8.357-4.322,15.059-9.982,20.095-16.979
				l14.441,9.387c-7.707,9.756-17.282,17.486-28.727,23.189c-11.444,5.701-23.889,8.557-37.321,8.557
				c-21.718,0-38.246-6.807-49.585-20.428c-11.342-13.617-15.255-30.919-11.743-51.9c3.448-20.609,13.045-37.82,28.792-51.623
				C1566.638,123.893,1585.095,116.99,1606.261,116.99z M1603.304,134.659c-14.355,0-27.08,4.279-38.174,12.837
				c-11.095,8.558-18.704,19.648-22.821,33.265h102.972c0.591-14.536-3.127-25.854-11.157-33.956
				C1626.091,138.709,1615.817,134.659,1603.304,134.659z"/>
		</g>
	</g>
	<path fill="#FFFFFF" d="M565.553,315.98c4.235-0.658,9.294-1.153,14.834-1.153c9.985,0,17.117,2.322,21.846,6.791
		c4.809,4.333,7.624,10.631,7.624,19.28c0,8.799-2.734,16.088-7.79,21.066c-5.04,4.991-13.369,7.798-23.84,7.798
		c-4.974,0-9.13-0.317-12.674-0.661V315.98z M572.523,363.642c1.761,0.331,4.318,0.482,7.045,0.482
		c14.92,0,22.987-8.306,22.987-22.91c0.085-12.774-7.131-20.9-21.841-20.9c-3.628,0-6.352,0.329-8.191,0.81V363.642z
		 M640.148,369.268l-0.575-4.966h-0.246c-2.159,3.136-6.312,5.804-11.865,5.804c-7.817,0-11.861-5.486-11.861-11.124
		c0-9.311,8.362-14.453,23.313-14.438v-0.826c0-3.163-0.862-8.965-8.8-8.965c-3.584,0-7.379,1.155-10.101,2.97l-1.602-4.648
		c3.229-2.146,7.876-3.479,12.768-3.479c11.811,0,14.707,8.127,14.707,15.786v14.591c0,3.326,0.166,6.642,0.659,9.296H640.148z
		 M639.082,349.505c-7.691-0.165-16.427,1.171-16.427,8.65c0,4.634,3.061,6.793,6.642,6.793c5.055,0,8.285-3.301,9.372-6.476
		c0.248-0.813,0.414-1.637,0.414-2.311V349.505z M665.45,319.31v11.124h10.071v5.459H665.45v20.778c0,4.813,1.353,7.617,5.259,7.617
		c1.833,0,3.229-0.315,4.078-0.495l0.324,5.309c-1.336,0.509-3.496,0.988-6.231,0.988c-3.31,0-5.92-1.14-7.628-2.981
		c-1.997-2.146-2.684-5.624-2.684-10.122v-21.094h-6.036v-5.459h6.036v-9.296L665.45,319.31z M704.908,369.268l-0.571-4.966h-0.231
		c-2.179,3.136-6.334,5.804-11.821,5.804c-7.878,0-11.868-5.486-11.868-11.124c0-9.311,8.309-14.453,23.323-14.438v-0.826
		c0-3.163-0.908-8.965-8.802-8.965c-3.642,0-7.383,1.155-10.12,2.97l-1.581-4.648c3.165-2.146,7.813-3.479,12.706-3.479
		c11.868,0,14.767,8.127,14.767,15.786v14.591c0,3.326,0.166,6.642,0.595,9.296H704.908z M703.903,349.505
		c-7.714-0.165-16.432,1.171-16.432,8.65c0,4.634,3.001,6.793,6.642,6.793c5.06,0,8.225-3.301,9.377-6.476
		c0.249-0.813,0.413-1.637,0.413-2.311V349.505z M773.059,369.268c-1.499-1.502-2.916-3.138-5.058-5.309
		c-4.648,4.316-9.807,6.146-15.774,6.146c-10.465,0-16.529-6.984-16.529-15.113c0-7.452,4.4-12.443,10.547-15.771v-0.315
		c-2.819-3.495-4.483-7.468-4.483-11.29c0-6.492,4.731-13.283,13.696-13.283c6.724,0,11.949,4.482,11.949,11.453
		c0,5.652-3.314,10.134-11.867,14.438v0.316c4.565,5.17,9.708,11.14,13.119,14.961c2.488-3.671,4.153-8.965,5.226-15.771h6.394
		c-1.417,8.47-3.741,15.263-7.795,19.925c2.9,3.135,5.719,6.133,8.95,9.613H773.059z M764.588,359.972
		c-3.229-3.495-9.213-10.122-15.196-17.079c-2.9,1.965-6.97,5.307-6.97,11.095c0,6.147,4.565,10.81,11.041,10.81
		C758.111,364.797,762.017,362.789,764.588,359.972z M748.156,326.955c0,3.959,1.747,6.807,4.071,9.776
		c5.473-3.149,8.967-5.98,8.967-10.615c0-3.314-1.831-6.973-6.231-6.973C750.48,319.144,748.156,322.802,748.156,326.955z
		 M811.659,315.307v22.58h26.141v-22.58h7.055v53.961h-7.055v-25.386h-26.141v25.386h-6.97v-53.961H811.659z M891.829,349.52
		c0,14.288-9.957,20.586-19.403,20.586c-10.465,0-18.585-7.646-18.585-19.925c0-12.954,8.602-20.586,19.244-20.586
		C884.21,329.595,891.829,337.722,891.829,349.52z M860.972,349.863c0,8.609,4.964,14.934,11.784,14.934
		c6.792,0,11.784-6.313,11.784-15.1c0-6.489-3.313-14.794-11.619-14.794S860.972,342.549,860.972,349.863z M900.644,340.898
		c0-3.989-0.014-7.165-0.33-10.465h6.146l0.33,6.298h0.316c2.158-3.658,5.803-7.137,12.128-7.137c5.309,0,9.296,3.163,10.959,7.798
		h0.166c1.169-2.16,2.803-3.825,4.317-5.129c2.324-1.679,4.965-2.669,8.622-2.669c5.143,0,12.773,3.327,12.773,16.776v22.896h-6.956
		v-22.059c0-7.328-2.669-11.811-8.458-11.811c-3.987,0-7.137,2.846-8.305,6.324c-0.331,0.99-0.509,2.312-0.509,3.492v24.053h-6.958
		v-23.24c0-6.146-2.668-10.629-7.989-10.629c-4.469,0-7.633,3.492-8.787,6.985c-0.344,1.004-0.509,2.308-0.509,3.479v23.405h-6.958
		V340.898z M971.366,351.171c0.164,9.473,6.297,13.448,13.283,13.448c5.129,0,8.126-0.978,10.78-1.995l1.169,4.993
		c-2.488,1.153-6.657,2.473-12.806,2.473c-11.946,0-19.083-7.947-19.083-19.58c0-11.771,6.82-20.915,18.11-20.915
		c12.624,0,16.089,11.124,16.089,18.261c0,1.484-0.165,2.503-0.316,3.315H971.366z M992.103,346.042
		c0.014-4.484-1.832-11.456-9.791-11.456c-7.137,0-10.286,6.628-10.795,11.456H992.103z M1059.676,349.52
		c0,14.288-9.956,20.586-19.267,20.586c-10.601,0-18.591-7.646-18.591-19.925c0-12.954,8.472-20.586,19.114-20.586
		C1052.183,329.595,1059.676,337.722,1059.676,349.52z M1028.954,349.863c0,8.609,4.828,14.934,11.737,14.934
		c6.704,0,11.697-6.313,11.697-15.1c0-6.489-3.181-14.794-11.495-14.794C1032.462,334.903,1028.954,342.549,1028.954,349.863z
		 M1117.113,319.295c-1.814-1.155-4.646-2.146-7.942-2.146c-7.341,0-9.644,5.157-9.644,11.441v1.843h22.578v38.834h-6.987v-33.375
		h-15.445v33.375h-7.117v-33.375h-16.282v33.375h-6.971v-33.375h-5.474v-5.459h5.474v-1.349c0-4.964,1.187-9.624,4.646-12.938
		c2.174-2.323,5.505-3.811,9.951-3.811c2.522,0,5.327,0.992,6.794,1.665l-1.962,5.294c-1.17-0.66-2.999-1.471-4.832-1.471
		c-2.305,0-3.955,0.824-5.124,2.146c-1.849,2.146-2.503,5.638-2.503,8.965v1.499h16.282v-2.008c0-10.286,6.133-16.928,16.941-16.928
		c3.626,0,7.616,1.004,9.625,2.488L1117.113,319.295z M1161.448,367.78c-1.829,0.99-5.967,2.31-11.124,2.31
		c-11.675,0-19.267-7.961-19.267-19.896c0-11.95,8.142-20.585,20.766-20.585c4.152,0,7.818,1.142,9.791,1.993l-1.646,5.473
		c-1.668-0.99-4.318-1.828-8.145-1.828c-8.821,0-13.633,6.628-13.633,14.616c0,8.967,5.672,14.591,13.45,14.591
		c3.99,0,6.644-1.005,8.639-1.98L1161.448,367.78z M1173.095,351.171c0.16,9.473,6.287,13.448,13.396,13.448
		c5.004,0,8.006-0.978,10.658-1.995l1.18,4.993c-2.472,1.153-6.67,2.473-12.817,2.473c-11.949,0-19.085-7.947-19.085-19.58
		c0-11.771,6.828-20.915,18.124-20.915c12.741,0,16.075,11.124,16.075,18.261c0,1.484-0.164,2.503-0.305,3.315H1173.095z
		 M1193.819,346.042c0.026-4.484-1.828-11.456-9.789-11.456c-7.139,0-10.287,6.628-10.795,11.456H1193.819z M1225.366,361.979
		c2.123,1.47,5.797,2.817,9.297,2.817c5.139,0,7.483-2.502,7.483-5.804c0-3.326-1.996-5.154-7.155-7.136
		c-6.973-2.353-10.283-6.311-10.283-10.959c0-6.16,5.105-11.304,13.426-11.304c3.851,0,7.323,1.156,9.484,2.337l-1.724,5.144
		c-1.586-0.99-4.396-2.172-7.925-2.172c-4.152,0-6.477,2.337-6.477,5.306c0,3.164,2.324,4.648,7.321,6.491
		c6.782,2.64,10.138,5.969,10.138,11.772c0,6.804-5.191,11.617-14.454,11.617c-4.288,0-8.145-1.14-10.94-2.652L1225.366,361.979z
		 M1262.015,351.171c0.08,9.473,6.189,13.448,13.293,13.448c5.008,0,8.012-0.978,10.661-1.995l1.271,4.993
		c-2.557,1.153-6.759,2.473-12.908,2.473c-11.949,0-19.082-7.947-19.082-19.58c0-11.771,6.846-20.915,18.135-20.915
		c12.723,0,16.063,11.124,16.063,18.261c0,1.484-0.167,2.503-0.204,3.315H1262.015z M1282.638,346.042
		c0.053-4.484-1.83-11.456-9.787-11.456c-7.138,0-10.271,6.628-10.797,11.456H1282.638z M1325.804,367.78
		c-1.828,0.99-5.949,2.31-11.125,2.31c-11.7,0-19.275-7.961-19.275-19.896c0-11.95,8.15-20.585,20.773-20.585
		c4.161,0,7.839,1.142,9.793,1.993l-1.632,5.473c-1.68-0.99-4.33-1.828-8.161-1.828c-8.842,0-13.635,6.628-13.635,14.616
		c0,8.967,5.693,14.591,13.441,14.591c4,0,6.643-1.005,8.648-1.98L1325.804,367.78z M1366.49,358.65
		c0,3.987,0.106,7.479,0.32,10.617h-6.269l-0.373-6.313h-0.168c-1.83,3.012-5.949,7.15-12.791,7.15
		c-6.121,0-13.422-3.329-13.422-16.941v-22.73h7.1v21.424c0,7.453,2.193,12.431,8.641,12.431c4.69,0,7.989-3.313,9.301-6.462
		c0.358-1.004,0.643-2.325,0.643-3.645v-23.748h7.019V358.65z M1378.218,342.549c0-4.499-0.114-8.472-0.315-12.115h6.151
		l0.209,7.631h0.32c1.791-5.156,5.992-8.47,10.762-8.47c0.819,0,1.344,0.015,1.996,0.178v6.642
		c-0.757-0.163-1.467-0.178-2.445-0.178c-4.952,0-8.468,3.811-9.445,8.979c-0.155,0.99-0.264,2.146-0.264,3.315v20.737h-6.969
		V342.549z M1412.527,319.625c0.104,2.339-1.693,4.318-4.483,4.318c-2.472,0-4.223-1.979-4.223-4.318
		c0-2.489,1.839-4.469,4.39-4.469C1410.834,315.156,1412.527,317.136,1412.527,319.625z M1404.695,369.268v-38.834h7.083v38.834
		H1404.695z M1431.923,319.31v11.124h10.096v5.459h-10.096v20.778c0,4.813,1.342,7.617,5.284,7.617c1.839,0,3.181-0.315,4.124-0.495
		l0.325,5.309c-1.419,0.509-3.589,0.988-6.28,0.988c-3.301,0-5.95-1.14-7.619-2.981c-2.006-2.146-2.695-5.624-2.695-10.122v-21.094
		h-5.992v-5.459h5.992v-9.296L1431.923,319.31z M1453.259,330.434l8.484,22.908c0.863,2.641,1.838,5.64,2.491,7.963h0.135
		c0.727-2.323,1.533-5.309,2.503-8.127l7.672-22.744h7.459l-10.597,27.708c-5.015,13.283-8.479,20.091-13.283,24.243
		c-3.465,2.998-6.87,4.167-8.655,4.497l-1.78-5.83c1.78-0.646,4.104-1.667,6.163-3.48c1.948-1.499,4.338-4.303,5.938-7.809
		c0.328-0.813,0.568-1.321,0.568-1.803c0-0.343-0.128-0.852-0.458-1.83l-14.359-35.696H1453.259z"/>
</g>
</svg>
